<svg width="1701" height="730" viewBox="0 0 1701 730" fill="none" xmlns="http://www.w3.org/2000/svg">
<g clip-path="url(#clip0_24:78)">
<path d="M1746.8 -41.2271H-40.5991V729.999H1746.8V-41.2271Z" fill="#999999"/>
<path d="M83.16 579.438H1682.1" stroke="#E6E6E6"/>
<path d="M83.16 486.362H1682.1" stroke="#E6E6E6"/>
<path d="M83.16 393.287H1682.1" stroke="#E6E6E6"/>
<path d="M83.16 300.21H1682.1" stroke="#E6E6E6"/>
<path d="M83.16 205.312H1682.1" stroke="#E6E6E6"/>
<path d="M83.16 112.237H1682.1" stroke="#E6E6E6"/>
<path d="M83.16 17.3369H1682.1" stroke="#E6E6E6"/>
<path d="M149.31 268.277H109.62V580.353H149.31V268.277Z" fill="#CC0000"/>
<path d="M283.5 217.177H243.81V580.352H283.5V217.177Z" fill="#CC0000"/>
<path d="M415.8 281.053H376.11V580.353H415.8V281.053Z" fill="#CC0000"/>
<path d="M549.99 202.576H510.3V580.351H549.99V202.576Z" fill="#CC0000"/>
<path d="M682.29 195.278H642.6V580.353H682.29V195.278Z" fill="#CC0000"/>
<path d="M816.48 282.878H776.79V580.353H816.48V282.878Z" fill="#CC0000"/>
<path d="M948.78 182.5H909.09V580.35H948.78V182.5Z" fill="#CC0000"/>
<path d="M1082.97 222.652H1043.28V580.352H1082.97V222.652Z" fill="#CC0000"/>
<path d="M1215.27 248.201H1175.58V580.351H1215.27V248.201Z" fill="#CC0000"/>
<path d="M1349.46 127.752H1309.77V580.352H1349.46V127.752Z" fill="#CC0000"/>
<path d="M1481.76 328.503H1442.07V580.353H1481.76V328.503Z" fill="#CC0000"/>
<path d="M1615.95 164.254H1576.26V580.354H1615.95V164.254Z" fill="#CC0000"/>
<path d="M189 224.477H149.31V580.352H189V224.477Z" fill="#E15537"/>
<path d="M323.19 186.152H283.5V580.352H323.19V186.152Z" fill="#E15537"/>
<path d="M455.49 197.101H415.8V580.351H455.49V197.101Z" fill="#E15537"/>
<path d="M115.096 246.601H113.12V238.985L110.762 239.717V238.11L114.884 236.634H115.096V246.601ZM123.695 236.545V238.172H123.504C122.611 238.186 121.891 238.418 121.344 238.869C120.801 239.32 120.475 239.947 120.366 240.749C120.895 240.211 121.562 239.942 122.369 239.942C123.235 239.942 123.923 240.252 124.433 240.872C124.944 241.492 125.199 242.308 125.199 243.319C125.199 243.966 125.058 244.552 124.775 245.076C124.497 245.6 124.101 246.008 123.586 246.3C123.075 246.591 122.497 246.737 121.849 246.737C120.801 246.737 119.954 246.373 119.307 245.644C118.664 244.914 118.343 243.941 118.343 242.725V242.014C118.343 240.934 118.545 239.981 118.951 239.156C119.361 238.327 119.947 237.687 120.708 237.235C121.474 236.78 122.36 236.549 123.367 236.545H123.695ZM121.767 241.528C121.448 241.528 121.159 241.613 120.899 241.781C120.64 241.945 120.448 242.164 120.325 242.438V243.039C120.325 243.7 120.455 244.217 120.715 244.591C120.974 244.96 121.339 245.145 121.808 245.145C122.232 245.145 122.574 244.978 122.834 244.646C123.098 244.308 123.23 243.873 123.23 243.34C123.23 242.798 123.098 242.36 122.834 242.027C122.57 241.695 122.214 241.528 121.767 241.528ZM133.142 237.755L129.294 246.601H127.209L131.064 238.247H126.115V236.647H133.142V237.755Z" fill="#191929"/>
<path d="M249.286 195.5H247.31V187.885L244.952 188.616V187.01L249.074 185.533H249.286V195.5ZM257.147 191.521C256.632 192.027 256.03 192.28 255.342 192.28C254.463 192.28 253.759 191.979 253.23 191.378C252.701 190.772 252.437 189.956 252.437 188.931C252.437 188.279 252.578 187.682 252.861 187.14C253.148 186.593 253.547 186.169 254.057 185.868C254.568 185.563 255.142 185.41 255.78 185.41C256.436 185.41 257.019 185.574 257.53 185.902C258.04 186.23 258.437 186.702 258.719 187.317C259.002 187.933 259.145 188.637 259.15 189.43V190.161C259.15 191.82 258.737 193.123 257.913 194.071C257.088 195.019 255.919 195.525 254.406 195.589L253.92 195.596V193.948L254.358 193.941C256.076 193.864 257.006 193.057 257.147 191.521ZM255.828 190.77C256.147 190.77 256.42 190.688 256.648 190.523C256.88 190.359 257.056 190.161 257.174 189.929V189.115C257.174 188.445 257.047 187.926 256.792 187.557C256.536 187.188 256.194 187.003 255.766 187.003C255.37 187.003 255.044 187.185 254.789 187.55C254.533 187.91 254.406 188.363 254.406 188.91C254.406 189.452 254.529 189.899 254.775 190.25C255.026 190.596 255.376 190.77 255.828 190.77ZM266.41 191.754H267.538V193.347H266.41V195.5H264.434V193.347H260.353L260.264 192.103L264.414 185.547H266.41V191.754ZM262.233 191.754H264.434V188.24L264.304 188.466L262.233 191.754Z" fill="#191929"/>
<path d="M381.585 259.376H379.61V251.761L377.251 252.492V250.886L381.374 249.409H381.585V259.376ZM390.185 249.32V250.947H389.994C389.1 250.961 388.38 251.193 387.833 251.645C387.291 252.096 386.965 252.722 386.856 253.524C387.385 252.987 388.052 252.718 388.859 252.718C389.725 252.718 390.413 253.028 390.923 253.647C391.434 254.267 391.689 255.083 391.689 256.095C391.689 256.742 391.548 257.327 391.265 257.852C390.987 258.376 390.591 258.784 390.076 259.075C389.565 259.367 388.986 259.513 388.339 259.513C387.291 259.513 386.444 259.148 385.796 258.419C385.154 257.69 384.833 256.717 384.833 255.5V254.789C384.833 253.709 385.035 252.757 385.441 251.932C385.851 251.102 386.437 250.462 387.198 250.011C387.963 249.555 388.85 249.325 389.857 249.32H390.185ZM388.257 254.304C387.938 254.304 387.649 254.388 387.389 254.557C387.129 254.721 386.938 254.939 386.815 255.213V255.814C386.815 256.475 386.945 256.993 387.205 257.366C387.464 257.735 387.829 257.92 388.298 257.92C388.722 257.92 389.064 257.754 389.324 257.421C389.588 257.084 389.72 256.648 389.72 256.115C389.72 255.573 389.588 255.135 389.324 254.803C389.059 254.47 388.704 254.304 388.257 254.304ZM399.564 255.261C399.564 256.637 399.279 257.69 398.709 258.419C398.14 259.148 397.306 259.513 396.208 259.513C395.123 259.513 394.293 259.155 393.719 258.439C393.145 257.724 392.851 256.699 392.837 255.363V253.531C392.837 252.141 393.125 251.086 393.699 250.366C394.278 249.646 395.109 249.286 396.194 249.286C397.278 249.286 398.108 249.644 398.682 250.359C399.256 251.07 399.55 252.093 399.564 253.429V255.261ZM397.588 253.251C397.588 252.426 397.474 251.827 397.247 251.453C397.023 251.075 396.672 250.886 396.194 250.886C395.729 250.886 395.385 251.066 395.162 251.426C394.943 251.781 394.827 252.34 394.813 253.101V255.521C394.813 256.332 394.922 256.936 395.141 257.332C395.364 257.724 395.72 257.92 396.208 257.92C396.691 257.92 397.039 257.731 397.253 257.353C397.468 256.974 397.579 256.396 397.588 255.616V253.251Z" fill="#191929"/>
<path d="M517.799 180.899H510.977V179.546L514.197 176.114C514.639 175.631 514.964 175.21 515.174 174.85C515.388 174.49 515.495 174.148 515.495 173.824C515.495 173.382 515.384 173.036 515.16 172.785C514.937 172.53 514.618 172.402 514.203 172.402C513.757 172.402 513.404 172.557 513.144 172.867C512.889 173.173 512.761 173.576 512.761 174.077H510.779C510.779 173.471 510.922 172.917 511.209 172.416C511.501 171.915 511.911 171.523 512.44 171.24C512.968 170.953 513.568 170.81 514.238 170.81C515.263 170.81 516.058 171.056 516.623 171.548C517.193 172.04 517.478 172.735 517.478 173.633C517.478 174.125 517.35 174.626 517.095 175.137C516.84 175.647 516.402 176.242 515.782 176.921L513.52 179.307H517.799V180.899ZM525.715 176.784C525.715 178.16 525.43 179.213 524.861 179.942C524.291 180.672 523.457 181.036 522.359 181.036C521.274 181.036 520.445 180.678 519.87 179.963C519.296 179.247 519.002 178.222 518.989 176.887V175.055C518.989 173.665 519.276 172.61 519.85 171.89C520.429 171.17 521.26 170.81 522.345 170.81C523.43 170.81 524.259 171.167 524.833 171.883C525.407 172.594 525.701 173.617 525.715 174.952V176.784ZM523.74 174.774C523.74 173.95 523.626 173.35 523.398 172.977C523.174 172.598 522.823 172.409 522.345 172.409C521.88 172.409 521.536 172.589 521.313 172.949C521.094 173.305 520.978 173.863 520.964 174.624V177.044C520.964 177.855 521.073 178.459 521.292 178.855C521.516 179.247 521.871 179.443 522.359 179.443C522.842 179.443 523.19 179.254 523.405 178.876C523.619 178.498 523.73 177.919 523.74 177.14V174.774ZM533.877 180.899H527.055V179.546L530.275 176.114C530.717 175.631 531.043 175.21 531.252 174.85C531.466 174.49 531.573 174.148 531.573 173.824C531.573 173.382 531.462 173.036 531.239 172.785C531.015 172.53 530.696 172.402 530.281 172.402C529.835 172.402 529.482 172.557 529.222 172.867C528.967 173.173 528.839 173.576 528.839 174.077H526.857C526.857 173.471 527 172.917 527.287 172.416C527.579 171.915 527.989 171.523 528.518 171.24C529.046 170.953 529.646 170.81 530.316 170.81C531.341 170.81 532.136 171.056 532.701 171.548C533.271 172.04 533.556 172.735 533.556 173.633C533.556 174.125 533.428 174.626 533.173 175.137C532.918 175.647 532.48 176.242 531.861 176.921L529.598 179.307H533.877V180.899Z" fill="#191929"/>
<path d="M650.099 173.602H643.277V172.248L646.497 168.816C646.939 168.333 647.264 167.912 647.474 167.552C647.688 167.192 647.795 166.85 647.795 166.526C647.795 166.084 647.684 165.738 647.46 165.487C647.237 165.232 646.918 165.104 646.503 165.104C646.057 165.104 645.704 165.259 645.444 165.569C645.189 165.875 645.061 166.278 645.061 166.779H643.079C643.079 166.173 643.222 165.619 643.509 165.118C643.801 164.617 644.211 164.225 644.74 163.942C645.268 163.655 645.868 163.512 646.538 163.512C647.563 163.512 648.358 163.758 648.923 164.25C649.493 164.742 649.778 165.437 649.778 166.335C649.778 166.827 649.65 167.328 649.395 167.839C649.14 168.349 648.702 168.944 648.083 169.623L645.82 172.009H650.099V173.602ZM658.015 169.486C658.015 170.863 657.73 171.915 657.161 172.645C656.591 173.374 655.757 173.738 654.659 173.738C653.574 173.738 652.745 173.381 652.17 172.665C651.596 171.95 651.302 170.924 651.289 169.589V167.757C651.289 166.367 651.576 165.312 652.15 164.592C652.729 163.872 653.56 163.512 654.645 163.512C655.73 163.512 656.559 163.869 657.133 164.585C657.708 165.296 658.001 166.319 658.015 167.654V169.486ZM656.04 167.477C656.04 166.652 655.926 166.052 655.698 165.679C655.474 165.3 655.124 165.111 654.645 165.111C654.18 165.111 653.836 165.291 653.613 165.651C653.394 166.007 653.278 166.565 653.264 167.326V169.746C653.264 170.557 653.374 171.161 653.592 171.558C653.816 171.95 654.171 172.146 654.659 172.146C655.142 172.146 655.49 171.956 655.705 171.578C655.919 171.2 656.03 170.621 656.04 169.842V167.477ZM664.714 163.546V165.173H664.523C663.63 165.187 662.91 165.419 662.363 165.87C661.82 166.321 661.495 166.948 661.385 167.75C661.914 167.212 662.582 166.943 663.388 166.943C664.254 166.943 664.942 167.253 665.453 167.873C665.963 168.493 666.218 169.309 666.218 170.32C666.218 170.967 666.077 171.553 665.794 172.077C665.516 172.601 665.12 173.009 664.605 173.301C664.095 173.592 663.516 173.738 662.869 173.738C661.82 173.738 660.973 173.374 660.326 172.645C659.683 171.915 659.362 170.942 659.362 169.726V169.015C659.362 167.935 659.565 166.982 659.97 166.157C660.38 165.328 660.966 164.688 661.727 164.236C662.493 163.781 663.379 163.55 664.386 163.546H664.714ZM662.787 168.529C662.468 168.529 662.178 168.614 661.918 168.782C661.659 168.946 661.467 169.165 661.344 169.438V170.04C661.344 170.701 661.474 171.218 661.734 171.592C661.994 171.961 662.358 172.146 662.828 172.146C663.251 172.146 663.593 171.979 663.853 171.646C664.117 171.309 664.25 170.874 664.25 170.341C664.25 169.799 664.117 169.361 663.853 169.028C663.589 168.696 663.233 168.529 662.787 168.529Z" fill="#191929"/>
<path d="M782.266 261.201H780.29V253.586L777.932 254.317V252.711L782.054 251.234H782.266V261.201ZM785.8 256.307L786.374 251.248H791.952V252.896H787.994L787.748 255.035C788.217 254.785 788.716 254.659 789.245 254.659C790.193 254.659 790.936 254.953 791.474 255.541C792.011 256.129 792.28 256.951 792.28 258.009C792.28 258.651 792.144 259.228 791.87 259.738C791.601 260.244 791.214 260.638 790.708 260.921C790.202 261.199 789.605 261.338 788.917 261.338C788.315 261.338 787.757 261.217 787.242 260.976C786.727 260.729 786.319 260.385 786.019 259.943C785.722 259.501 785.565 258.998 785.547 258.433H787.502C787.543 258.847 787.687 259.171 787.933 259.403C788.183 259.631 788.509 259.745 788.91 259.745C789.357 259.745 789.701 259.586 789.942 259.267C790.184 258.943 790.305 258.487 790.305 257.899C790.305 257.334 790.166 256.901 789.888 256.601C789.61 256.3 789.215 256.149 788.705 256.149C788.236 256.149 787.855 256.272 787.563 256.519L787.372 256.696L785.8 256.307ZM798.166 257.223C797.651 257.729 797.049 257.981 796.361 257.981C795.482 257.981 794.778 257.681 794.249 257.079C793.72 256.473 793.456 255.657 793.456 254.632C793.456 253.98 793.597 253.383 793.88 252.841C794.167 252.294 794.566 251.87 795.076 251.569C795.587 251.264 796.161 251.111 796.799 251.111C797.455 251.111 798.038 251.275 798.549 251.604C799.059 251.932 799.456 252.403 799.738 253.019C800.021 253.634 800.164 254.338 800.169 255.131V255.862C800.169 257.521 799.757 258.825 798.932 259.772C798.107 260.72 796.938 261.226 795.425 261.29L794.939 261.297V259.649L795.377 259.643C797.095 259.565 798.025 258.758 798.166 257.223ZM796.847 256.471C797.166 256.471 797.439 256.389 797.667 256.225C797.899 256.061 798.075 255.862 798.193 255.63V254.816C798.193 254.146 798.066 253.627 797.811 253.258C797.555 252.889 797.214 252.704 796.785 252.704C796.389 252.704 796.063 252.886 795.808 253.251C795.552 253.611 795.425 254.064 795.425 254.611C795.425 255.154 795.548 255.6 795.794 255.951C796.045 256.298 796.396 256.471 796.847 256.471Z" fill="#191929"/>
<path d="M916.589 160.826H909.767V159.472L912.987 156.041C913.429 155.557 913.754 155.136 913.964 154.776C914.178 154.416 914.285 154.074 914.285 153.75C914.285 153.308 914.174 152.962 913.95 152.711C913.727 152.456 913.408 152.329 912.993 152.329C912.547 152.329 912.194 152.484 911.934 152.793C911.679 153.099 911.551 153.502 911.551 154.003H909.569C909.569 153.397 909.712 152.844 909.999 152.342C910.291 151.841 910.701 151.449 911.23 151.167C911.758 150.879 912.358 150.736 913.028 150.736C914.053 150.736 914.848 150.982 915.413 151.474C915.983 151.966 916.268 152.661 916.268 153.559C916.268 154.051 916.14 154.553 915.885 155.063C915.63 155.573 915.192 156.168 914.573 156.847L912.31 159.233H916.589V160.826ZM922.605 160.826H920.629V153.21L918.271 153.942V152.335L922.393 150.859H922.605V160.826ZM927.855 154.974H928.907C929.409 154.974 929.78 154.849 930.022 154.598C930.263 154.347 930.384 154.015 930.384 153.6C930.384 153.199 930.263 152.887 930.022 152.664C929.785 152.44 929.457 152.329 929.037 152.329C928.659 152.329 928.342 152.433 928.087 152.643C927.832 152.848 927.704 153.117 927.704 153.45H925.729C925.729 152.93 925.868 152.465 926.146 152.055C926.428 151.64 926.82 151.317 927.322 151.084C927.827 150.852 928.383 150.736 928.99 150.736C930.042 150.736 930.867 150.989 931.464 151.495C932.061 151.996 932.36 152.689 932.36 153.573C932.36 154.028 932.221 154.448 931.943 154.831C931.665 155.213 931.3 155.507 930.849 155.712C931.409 155.913 931.826 156.214 932.1 156.615C932.378 157.016 932.517 157.49 932.517 158.037C932.517 158.921 932.193 159.629 931.546 160.163C930.904 160.696 930.051 160.962 928.99 160.962C927.996 160.962 927.183 160.7 926.549 160.176C925.92 159.652 925.606 158.959 925.606 158.098H927.581C927.581 158.472 927.72 158.777 927.998 159.014C928.281 159.251 928.627 159.37 929.037 159.37C929.507 159.37 929.874 159.247 930.138 159C930.407 158.75 930.541 158.419 930.541 158.009C930.541 157.016 929.994 156.519 928.901 156.519H927.855V154.974Z" fill="#191929"/>
<path d="M1048.76 200.976H1046.78V193.36L1044.42 194.092V192.485L1048.54 191.009H1048.76V200.976ZM1056.62 196.997C1056.1 197.503 1055.5 197.756 1054.81 197.756C1053.93 197.756 1053.23 197.455 1052.7 196.854C1052.17 196.247 1051.91 195.432 1051.91 194.406C1051.91 193.755 1052.05 193.158 1052.33 192.615C1052.62 192.068 1053.02 191.645 1053.53 191.344C1054.04 191.038 1054.61 190.886 1055.25 190.886C1055.91 190.886 1056.49 191.05 1057 191.378C1057.51 191.706 1057.91 192.178 1058.19 192.793C1058.47 193.408 1058.62 194.112 1058.62 194.905V195.637C1058.62 197.296 1058.21 198.599 1057.38 199.547C1056.56 200.495 1055.39 201.001 1053.88 201.064L1053.39 201.071V199.424L1053.83 199.417C1055.55 199.34 1056.48 198.533 1056.62 196.997ZM1055.3 196.245C1055.62 196.245 1055.89 196.163 1056.12 195.999C1056.35 195.835 1056.53 195.637 1056.64 195.404V194.591C1056.64 193.921 1056.52 193.401 1056.26 193.032C1056.01 192.663 1055.66 192.479 1055.24 192.479C1054.84 192.479 1054.51 192.661 1054.26 193.025C1054 193.385 1053.88 193.839 1053.88 194.386C1053.88 194.928 1054 195.375 1054.24 195.726C1054.5 196.072 1054.85 196.245 1055.3 196.245ZM1066.86 200.976H1060.03V199.622L1063.25 196.19C1063.7 195.707 1064.02 195.286 1064.23 194.926C1064.45 194.566 1064.55 194.224 1064.55 193.9C1064.55 193.458 1064.44 193.112 1064.22 192.861C1064 192.606 1063.68 192.479 1063.26 192.479C1062.81 192.479 1062.46 192.633 1062.2 192.943C1061.95 193.249 1061.82 193.652 1061.82 194.153H1059.84C1059.84 193.547 1059.98 192.993 1060.27 192.492C1060.56 191.991 1060.97 191.599 1061.5 191.316C1062.03 191.029 1062.63 190.886 1063.3 190.886C1064.32 190.886 1065.12 191.132 1065.68 191.624C1066.25 192.116 1066.54 192.811 1066.54 193.709C1066.54 194.201 1066.41 194.702 1066.15 195.213C1065.9 195.723 1065.46 196.318 1064.84 196.997L1062.58 199.383H1066.86V200.976Z" fill="#191929"/>
<path d="M1181.06 226.524H1179.08V218.909L1176.72 219.641V218.034L1180.84 216.558H1181.06V226.524ZM1191.06 217.679L1187.21 226.524H1185.13L1188.99 218.171H1184.04V216.571H1191.06V217.679ZM1198.82 219.217C1198.82 219.7 1198.7 220.128 1198.46 220.502C1198.22 220.876 1197.89 221.174 1197.46 221.397C1197.94 221.63 1198.33 221.951 1198.61 222.361C1198.89 222.767 1199.03 223.245 1199.03 223.797C1199.03 224.681 1198.73 225.381 1198.13 225.896C1197.53 226.406 1196.71 226.661 1195.68 226.661C1194.64 226.661 1193.82 226.404 1193.22 225.889C1192.61 225.374 1192.31 224.676 1192.31 223.797C1192.31 223.245 1192.45 222.765 1192.73 222.354C1193.01 221.944 1193.39 221.625 1193.87 221.397C1193.45 221.174 1193.12 220.876 1192.88 220.502C1192.64 220.128 1192.52 219.7 1192.52 219.217C1192.52 218.369 1192.8 217.695 1193.37 217.193C1193.93 216.688 1194.7 216.435 1195.67 216.435C1196.64 216.435 1197.4 216.685 1197.97 217.187C1198.54 217.683 1198.82 218.36 1198.82 219.217ZM1197.05 223.653C1197.05 223.22 1196.93 222.874 1196.68 222.614C1196.43 222.354 1196.09 222.225 1195.66 222.225C1195.24 222.225 1194.91 222.354 1194.66 222.614C1194.41 222.869 1194.28 223.216 1194.28 223.653C1194.28 224.077 1194.41 224.419 1194.65 224.679C1194.9 224.938 1195.24 225.068 1195.68 225.068C1196.11 225.068 1196.44 224.943 1196.68 224.692C1196.93 224.442 1197.05 224.095 1197.05 223.653ZM1196.85 219.312C1196.85 218.925 1196.74 218.615 1196.54 218.383C1196.33 218.146 1196.04 218.027 1195.67 218.027C1195.3 218.027 1195.01 218.141 1194.81 218.369C1194.6 218.597 1194.5 218.911 1194.5 219.312C1194.5 219.709 1194.6 220.028 1194.81 220.27C1195.01 220.511 1195.3 220.632 1195.68 220.632C1196.05 220.632 1196.34 220.511 1196.54 220.27C1196.74 220.028 1196.85 219.709 1196.85 219.312Z" fill="#191929"/>
<path d="M1317.27 106.075H1310.45V104.722L1313.67 101.29C1314.11 100.807 1314.43 100.385 1314.64 100.025C1314.86 99.6654 1314.97 99.3236 1314.97 99C1314.97 98.5579 1314.85 98.2116 1314.63 97.9609C1314.41 97.7057 1314.09 97.5781 1313.67 97.5781C1313.23 97.5781 1312.87 97.7331 1312.61 98.043C1312.36 98.3483 1312.23 98.7516 1312.23 99.2529H1310.25C1310.25 98.6468 1310.39 98.0931 1310.68 97.5918C1310.97 97.0905 1311.38 96.6986 1311.91 96.416C1312.44 96.1289 1313.04 95.9854 1313.71 95.9854C1314.73 95.9854 1315.53 96.2314 1316.09 96.7236C1316.66 97.2158 1316.95 97.9108 1316.95 98.8086C1316.95 99.3008 1316.82 99.8021 1316.56 100.312C1316.31 100.823 1315.87 101.418 1315.25 102.097L1312.99 104.482H1317.27V106.075ZM1324.33 102.329H1325.46V103.922H1324.33V106.075H1322.35V103.922H1318.27L1318.19 102.678L1322.33 96.1221H1324.33V102.329ZM1320.15 102.329H1322.35V98.8154L1322.23 99.041L1320.15 102.329ZM1333.35 106.075H1326.52V104.722L1329.74 101.29C1330.19 100.807 1330.51 100.385 1330.72 100.025C1330.94 99.6654 1331.04 99.3236 1331.04 99C1331.04 98.5579 1330.93 98.2116 1330.71 97.9609C1330.49 97.7057 1330.17 97.5781 1329.75 97.5781C1329.3 97.5781 1328.95 97.7331 1328.69 98.043C1328.44 98.3483 1328.31 98.7516 1328.31 99.2529H1326.33C1326.33 98.6468 1326.47 98.0931 1326.76 97.5918C1327.05 97.0905 1327.46 96.6986 1327.99 96.416C1328.52 96.1289 1329.12 95.9854 1329.79 95.9854C1330.81 95.9854 1331.61 96.2314 1332.17 96.7236C1332.74 97.2158 1333.03 97.9108 1333.03 98.8086C1333.03 99.3008 1332.9 99.8021 1332.64 100.312C1332.39 100.823 1331.95 101.418 1331.33 102.097L1329.07 104.482H1333.35V106.075Z" fill="#191929"/>
<path d="M1447.55 306.826H1445.57V299.211L1443.21 299.942V298.336L1447.33 296.859H1447.55V306.826ZM1452.8 300.975H1453.85C1454.35 300.975 1454.72 300.849 1454.96 300.599C1455.2 300.348 1455.32 300.015 1455.32 299.601C1455.32 299.2 1455.2 298.887 1454.96 298.664C1454.73 298.441 1454.4 298.329 1453.98 298.329C1453.6 298.329 1453.28 298.434 1453.03 298.644C1452.77 298.849 1452.65 299.118 1452.65 299.45H1450.67C1450.67 298.931 1450.81 298.466 1451.09 298.056C1451.37 297.641 1451.76 297.317 1452.26 297.085C1452.77 296.853 1453.32 296.736 1453.93 296.736C1454.98 296.736 1455.81 296.989 1456.41 297.495C1457 297.996 1457.3 298.689 1457.3 299.573C1457.3 300.029 1457.16 300.448 1456.88 300.831C1456.61 301.214 1456.24 301.508 1455.79 301.713C1456.35 301.913 1456.77 302.214 1457.04 302.615C1457.32 303.016 1457.46 303.49 1457.46 304.037C1457.46 304.921 1457.13 305.63 1456.49 306.163C1455.84 306.696 1454.99 306.963 1453.93 306.963C1452.94 306.963 1452.12 306.701 1451.49 306.177C1450.86 305.653 1450.55 304.96 1450.55 304.099H1452.52C1452.52 304.472 1452.66 304.778 1452.94 305.015C1453.22 305.252 1453.57 305.37 1453.98 305.37C1454.45 305.37 1454.81 305.247 1455.08 305.001C1455.35 304.75 1455.48 304.42 1455.48 304.01C1455.48 303.016 1454.94 302.52 1453.84 302.52H1452.8V300.975ZM1459.12 301.932L1459.69 296.873H1465.27V298.521H1461.31L1461.07 300.66C1461.54 300.41 1462.04 300.284 1462.56 300.284C1463.51 300.284 1464.25 300.578 1464.79 301.166C1465.33 301.754 1465.6 302.576 1465.6 303.634C1465.6 304.276 1465.46 304.853 1465.19 305.363C1464.92 305.869 1464.53 306.263 1464.03 306.546C1463.52 306.824 1462.92 306.963 1462.24 306.963C1461.63 306.963 1461.08 306.842 1460.56 306.601C1460.05 306.354 1459.64 306.01 1459.34 305.568C1459.04 305.126 1458.88 304.623 1458.87 304.058H1460.82C1460.86 304.472 1461.01 304.796 1461.25 305.028C1461.5 305.256 1461.83 305.37 1462.23 305.37C1462.68 305.37 1463.02 305.211 1463.26 304.892C1463.5 304.568 1463.62 304.112 1463.62 303.524C1463.62 302.959 1463.48 302.526 1463.21 302.226C1462.93 301.925 1462.53 301.774 1462.02 301.774C1461.55 301.774 1461.17 301.897 1460.88 302.144L1460.69 302.321L1459.12 301.932Z" fill="#191929"/>
<path d="M1583.76 142.577H1576.94V141.224L1580.16 137.792C1580.6 137.309 1580.92 136.887 1581.13 136.527C1581.35 136.167 1581.46 135.826 1581.46 135.502C1581.46 135.06 1581.34 134.714 1581.12 134.463C1580.9 134.208 1580.58 134.08 1580.16 134.08C1579.72 134.08 1579.36 134.235 1579.1 134.545C1578.85 134.85 1578.72 135.254 1578.72 135.755H1576.74C1576.74 135.149 1576.88 134.595 1577.17 134.094C1577.46 133.592 1577.87 133.201 1578.4 132.918C1578.93 132.631 1579.53 132.487 1580.2 132.487C1581.22 132.487 1582.02 132.733 1582.58 133.226C1583.15 133.718 1583.44 134.413 1583.44 135.311C1583.44 135.803 1583.31 136.304 1583.05 136.814C1582.8 137.325 1582.36 137.92 1581.74 138.599L1579.48 140.984H1583.76V142.577ZM1591.8 142.577H1584.98V141.224L1588.2 137.792C1588.64 137.309 1588.96 136.887 1589.17 136.527C1589.39 136.167 1589.49 135.826 1589.49 135.502C1589.49 135.06 1589.38 134.714 1589.16 134.463C1588.94 134.208 1588.62 134.08 1588.2 134.08C1587.76 134.08 1587.4 134.235 1587.14 134.545C1586.89 134.85 1586.76 135.254 1586.76 135.755H1584.78C1584.78 135.149 1584.92 134.595 1585.21 134.094C1585.5 133.592 1585.91 133.201 1586.44 132.918C1586.97 132.631 1587.57 132.487 1588.24 132.487C1589.26 132.487 1590.06 132.733 1590.62 133.226C1591.19 133.718 1591.48 134.413 1591.48 135.311C1591.48 135.803 1591.35 136.304 1591.09 136.814C1590.84 137.325 1590.4 137.92 1589.78 138.599L1587.52 140.984H1591.8V142.577ZM1595.02 136.726H1596.08C1596.58 136.726 1596.95 136.6 1597.19 136.35C1597.43 136.099 1597.55 135.766 1597.55 135.352C1597.55 134.951 1597.43 134.638 1597.19 134.415C1596.95 134.192 1596.63 134.08 1596.21 134.08C1595.83 134.08 1595.51 134.185 1595.26 134.395C1595 134.6 1594.87 134.868 1594.87 135.201H1592.9C1592.9 134.682 1593.04 134.217 1593.32 133.807C1593.6 133.392 1593.99 133.068 1594.49 132.836C1595 132.604 1595.55 132.487 1596.16 132.487C1597.21 132.487 1598.04 132.74 1598.63 133.246C1599.23 133.747 1599.53 134.44 1599.53 135.324C1599.53 135.78 1599.39 136.199 1599.11 136.582C1598.83 136.965 1598.47 137.259 1598.02 137.464C1598.58 137.664 1599 137.965 1599.27 138.366C1599.55 138.767 1599.69 139.241 1599.69 139.788C1599.69 140.672 1599.36 141.381 1598.72 141.914C1598.07 142.447 1597.22 142.714 1596.16 142.714C1595.17 142.714 1594.35 142.452 1593.72 141.928C1593.09 141.404 1592.78 140.711 1592.78 139.85H1594.75C1594.75 140.223 1594.89 140.529 1595.17 140.766C1595.45 141.003 1595.8 141.121 1596.21 141.121C1596.68 141.121 1597.04 140.998 1597.31 140.752C1597.58 140.501 1597.71 140.171 1597.71 139.761C1597.71 138.767 1597.16 138.271 1596.07 138.271H1595.02V136.726Z" fill="#191929"/>
<path d="M154.786 202.803H152.81V195.188L150.452 195.919V194.312L154.574 192.836H154.786V202.803ZM162.647 198.824C162.132 199.33 161.53 199.583 160.842 199.583C159.963 199.583 159.259 199.282 158.73 198.681C158.201 198.075 157.937 197.259 157.937 196.233C157.937 195.582 158.078 194.985 158.361 194.442C158.648 193.896 159.047 193.472 159.557 193.171C160.068 192.866 160.642 192.713 161.28 192.713C161.936 192.713 162.519 192.877 163.03 193.205C163.54 193.533 163.937 194.005 164.219 194.62C164.502 195.235 164.645 195.939 164.65 196.732V197.464C164.65 199.123 164.237 200.426 163.413 201.374C162.588 202.322 161.419 202.828 159.906 202.892L159.42 202.898V201.251L159.858 201.244C161.576 201.167 162.506 200.36 162.647 198.824ZM161.328 198.072C161.647 198.072 161.92 197.99 162.148 197.826C162.38 197.662 162.556 197.464 162.674 197.231V196.418C162.674 195.748 162.547 195.229 162.292 194.859C162.036 194.49 161.694 194.306 161.266 194.306C160.87 194.306 160.544 194.488 160.289 194.853C160.033 195.213 159.906 195.666 159.906 196.213C159.906 196.755 160.029 197.202 160.275 197.553C160.526 197.899 160.876 198.072 161.328 198.072ZM170.864 202.803H168.888V195.188L166.53 195.919V194.312L170.652 192.836H170.864V202.803Z" fill="#191929"/>
<path d="M290.999 164.476H284.177V163.122L287.396 159.69C287.839 159.207 288.164 158.786 288.374 158.426C288.588 158.066 288.695 157.724 288.695 157.4C288.695 156.958 288.584 156.612 288.36 156.361C288.137 156.106 287.818 155.979 287.403 155.979C286.957 155.979 286.604 156.133 286.344 156.443C286.089 156.749 285.961 157.152 285.961 157.653H283.979C283.979 157.047 284.122 156.493 284.409 155.992C284.701 155.491 285.111 155.099 285.64 154.816C286.168 154.529 286.768 154.386 287.438 154.386C288.463 154.386 289.258 154.632 289.823 155.124C290.393 155.616 290.678 156.311 290.678 157.209C290.678 157.701 290.55 158.202 290.295 158.713C290.04 159.223 289.602 159.818 288.982 160.497L286.72 162.883H290.999V164.476ZM297.015 164.476H295.039V156.86L292.681 157.592V155.985L296.803 154.509H297.015V164.476ZM305.054 164.476H303.078V156.86L300.72 157.592V155.985L304.842 154.509H305.054V164.476Z" fill="#191929"/>
<path d="M423.299 175.426H416.477V174.072L419.697 170.641C420.139 170.158 420.464 169.736 420.674 169.376C420.888 169.016 420.995 168.674 420.995 168.351C420.995 167.909 420.884 167.562 420.66 167.312C420.437 167.056 420.118 166.929 419.703 166.929C419.257 166.929 418.904 167.084 418.644 167.394C418.389 167.699 418.261 168.102 418.261 168.604H416.279C416.279 167.997 416.422 167.444 416.709 166.942C417.001 166.441 417.411 166.049 417.94 165.767C418.468 165.479 419.068 165.336 419.738 165.336C420.763 165.336 421.558 165.582 422.123 166.074C422.693 166.566 422.978 167.261 422.978 168.159C422.978 168.651 422.85 169.153 422.595 169.663C422.34 170.174 421.902 170.768 421.282 171.447L419.02 173.833H423.299V175.426ZM431.215 171.311C431.215 172.687 430.93 173.74 430.361 174.469C429.791 175.198 428.957 175.562 427.859 175.562C426.774 175.562 425.945 175.205 425.37 174.489C424.796 173.774 424.502 172.748 424.489 171.413V169.581C424.489 168.191 424.776 167.136 425.35 166.416C425.929 165.696 426.76 165.336 427.845 165.336C428.93 165.336 429.759 165.694 430.333 166.409C430.907 167.12 431.201 168.143 431.215 169.479V171.311ZM429.24 169.301C429.24 168.476 429.126 167.877 428.898 167.503C428.674 167.125 428.323 166.936 427.845 166.936C427.38 166.936 427.036 167.116 426.813 167.476C426.594 167.831 426.478 168.389 426.464 169.15V171.57C426.464 172.382 426.573 172.985 426.792 173.382C427.016 173.774 427.371 173.97 427.859 173.97C428.342 173.97 428.69 173.781 428.905 173.402C429.119 173.024 429.23 172.445 429.24 171.666V169.301ZM432.849 170.531L433.423 165.473H439.001V167.12H435.043L434.797 169.26C435.267 169.009 435.766 168.884 436.294 168.884C437.242 168.884 437.985 169.178 438.523 169.766C439.06 170.354 439.329 171.176 439.329 172.233C439.329 172.876 439.193 173.452 438.919 173.963C438.65 174.469 438.263 174.863 437.757 175.146C437.251 175.424 436.654 175.562 435.966 175.562C435.365 175.562 434.806 175.442 434.291 175.2C433.776 174.954 433.368 174.61 433.068 174.168C432.771 173.726 432.614 173.222 432.596 172.657H434.551C434.592 173.072 434.736 173.396 434.982 173.628C435.232 173.856 435.558 173.97 435.959 173.97C436.406 173.97 436.75 173.81 436.991 173.491C437.233 173.168 437.354 172.712 437.354 172.124C437.354 171.559 437.215 171.126 436.937 170.825C436.659 170.524 436.265 170.374 435.754 170.374C435.285 170.374 434.904 170.497 434.613 170.743L434.421 170.921L432.849 170.531Z" fill="#191929"/>
<path d="M786.869 660.7H781.279V659.921L784.232 656.64C784.67 656.144 784.97 655.741 785.135 655.433C785.302 655.12 785.386 654.798 785.386 654.466C785.386 654.021 785.252 653.655 784.982 653.37C784.713 653.085 784.353 652.942 783.904 652.942C783.365 652.942 782.945 653.097 782.644 653.405C782.347 653.71 782.199 654.136 782.199 654.683H781.115C781.115 653.897 781.367 653.263 781.871 652.778C782.379 652.294 783.056 652.052 783.904 652.052C784.697 652.052 785.324 652.261 785.785 652.679C786.246 653.093 786.476 653.646 786.476 654.337C786.476 655.177 785.941 656.177 784.871 657.337L782.586 659.815H786.869V660.7ZM793.367 657.062C793.367 658.331 793.15 659.274 792.717 659.892C792.283 660.509 791.605 660.817 790.683 660.817C789.773 660.817 789.099 660.517 788.662 659.915C788.224 659.31 787.998 658.407 787.982 657.208V655.761C787.982 654.507 788.199 653.575 788.633 652.966C789.066 652.356 789.746 652.052 790.672 652.052C791.59 652.052 792.265 652.347 792.699 652.937C793.133 653.522 793.355 654.429 793.367 655.655V657.062ZM792.283 655.579C792.283 654.661 792.154 653.993 791.896 653.575C791.638 653.153 791.23 652.942 790.672 652.942C790.117 652.942 789.713 653.151 789.459 653.569C789.205 653.987 789.074 654.63 789.066 655.497V657.231C789.066 658.153 789.199 658.835 789.465 659.276C789.734 659.714 790.14 659.933 790.683 659.933C791.219 659.933 791.615 659.726 791.873 659.312C792.135 658.897 792.271 658.245 792.283 657.354V655.579ZM800.345 660.7H794.756V659.921L797.709 656.64C798.146 656.144 798.447 655.741 798.611 655.433C798.779 655.12 798.863 654.798 798.863 654.466C798.863 654.021 798.728 653.655 798.459 653.37C798.189 653.085 797.83 652.942 797.381 652.942C796.842 652.942 796.422 653.097 796.121 653.405C795.824 653.71 795.676 654.136 795.676 654.683H794.592C794.592 653.897 794.844 653.263 795.347 652.778C795.855 652.294 796.533 652.052 797.381 652.052C798.174 652.052 798.801 652.261 799.261 652.679C799.722 653.093 799.953 653.646 799.953 654.337C799.953 655.177 799.418 656.177 798.347 657.337L796.062 659.815H800.345V660.7ZM806.844 657.062C806.844 658.331 806.627 659.274 806.193 659.892C805.76 660.509 805.082 660.817 804.16 660.817C803.25 660.817 802.576 660.517 802.138 659.915C801.701 659.31 801.474 658.407 801.459 657.208V655.761C801.459 654.507 801.676 653.575 802.109 652.966C802.543 652.356 803.222 652.052 804.148 652.052C805.066 652.052 805.742 652.347 806.176 652.937C806.609 653.522 806.832 654.429 806.844 655.655V657.062ZM805.76 655.579C805.76 654.661 805.631 653.993 805.373 653.575C805.115 653.153 804.707 652.942 804.148 652.942C803.594 652.942 803.189 653.151 802.935 653.569C802.681 653.987 802.551 654.63 802.543 655.497V657.231C802.543 658.153 802.676 658.835 802.941 659.276C803.211 659.714 803.617 659.933 804.16 659.933C804.695 659.933 805.092 659.726 805.349 659.312C805.611 658.897 805.748 658.245 805.76 657.354V655.579Z" fill="#191929"/>
<path d="M767.34 662.475C767.34 656.428 762.263 651.525 756 651.525C749.737 651.525 744.66 656.428 744.66 662.475C744.66 668.523 749.737 673.425 756 673.425C762.263 673.425 767.34 668.523 767.34 662.475Z" fill="#CC0000"/>
<path d="M915.3 660.7H909.71V659.921L912.664 656.64C913.101 656.144 913.402 655.741 913.566 655.433C913.734 655.12 913.818 654.798 913.818 654.466C913.818 654.021 913.683 653.655 913.414 653.37C913.144 653.085 912.785 652.942 912.335 652.942C911.796 652.942 911.376 653.097 911.076 653.405C910.779 653.71 910.63 654.136 910.63 654.683H909.546C909.546 653.897 909.798 653.263 910.302 652.778C910.81 652.294 911.488 652.052 912.335 652.052C913.128 652.052 913.755 652.261 914.216 652.679C914.677 653.093 914.908 653.646 914.908 654.337C914.908 655.177 914.373 656.177 913.302 657.337L911.017 659.815H915.3V660.7ZM921.798 657.062C921.798 658.331 921.582 659.274 921.148 659.892C920.714 660.509 920.037 660.817 919.115 660.817C918.205 660.817 917.531 660.517 917.093 659.915C916.656 659.31 916.429 658.407 916.414 657.208V655.761C916.414 654.507 916.63 653.575 917.064 652.966C917.498 652.356 918.177 652.052 919.103 652.052C920.021 652.052 920.697 652.347 921.13 652.937C921.564 653.522 921.787 654.429 921.798 655.655V657.062ZM920.714 655.579C920.714 654.661 920.585 653.993 920.328 653.575C920.07 653.153 919.662 652.942 919.103 652.942C918.548 652.942 918.144 653.151 917.89 653.569C917.636 653.987 917.505 654.63 917.498 655.497V657.231C917.498 658.153 917.63 658.835 917.896 659.276C918.166 659.714 918.572 659.933 919.115 659.933C919.65 659.933 920.046 659.726 920.304 659.312C920.566 658.897 920.703 658.245 920.714 657.354V655.579ZM928.777 660.7H923.187V659.921L926.14 656.64C926.578 656.144 926.878 655.741 927.042 655.433C927.21 655.12 927.294 654.798 927.294 654.466C927.294 654.021 927.16 653.655 926.89 653.37C926.621 653.085 926.261 652.942 925.812 652.942C925.273 652.942 924.853 653.097 924.552 653.405C924.255 653.71 924.107 654.136 924.107 654.683H923.023C923.023 653.897 923.275 653.263 923.779 652.778C924.287 652.294 924.964 652.052 925.812 652.052C926.605 652.052 927.232 652.261 927.693 652.679C928.154 653.093 928.384 653.646 928.384 654.337C928.384 655.177 927.849 656.177 926.779 657.337L924.494 659.815H928.777V660.7ZM933.488 660.7H932.398V653.476L930.212 654.278V653.294L933.318 652.128H933.488V660.7Z" fill="#191929"/>
<path d="M895.772 662.475C895.772 656.428 890.695 651.525 884.432 651.525C878.169 651.525 873.092 656.428 873.092 662.475C873.092 668.523 878.169 673.425 884.432 673.425C890.695 673.425 895.772 668.523 895.772 662.475Z" fill="#E15537"/>
<path d="M145.641 597.313V603.125H144.642V600.864H143.144L141.774 603.125H140.7L142.161 600.713C141.789 600.577 141.502 600.368 141.302 600.085C141.105 599.799 141.006 599.465 141.006 599.086C141.006 598.556 141.205 598.13 141.602 597.808C142 597.482 142.532 597.317 143.198 597.313H145.641ZM142.005 599.097C142.005 599.38 142.102 599.609 142.295 599.784C142.489 599.956 142.745 600.044 143.063 600.047H144.642V598.119H143.214C142.845 598.119 142.551 598.21 142.333 598.393C142.114 598.572 142.005 598.807 142.005 599.097ZM151.985 603.125H150.991V600.644H148.322V603.125H147.323V597.313H148.322V599.833H150.991V597.313H151.985V603.125ZM153.677 603.125V597.313H155.943C156.717 597.313 157.309 597.45 157.721 597.722C158.136 597.99 158.344 598.386 158.344 598.909C158.344 599.177 158.263 599.421 158.102 599.639C157.941 599.854 157.703 600.019 157.388 600.133C157.739 600.216 158.02 600.377 158.231 600.617C158.446 600.857 158.553 601.143 158.553 601.476C158.553 602.01 158.357 602.418 157.963 602.701C157.572 602.984 157.019 603.125 156.303 603.125H153.677ZM154.67 600.574V602.325H156.314C156.729 602.325 157.039 602.248 157.243 602.094C157.451 601.94 157.554 601.723 157.554 601.444C157.554 600.864 157.128 600.574 156.276 600.574H154.67ZM154.67 599.779H155.954C156.885 599.779 157.35 599.507 157.35 598.962C157.35 598.418 156.91 598.137 156.029 598.119H154.67V599.779Z" fill="#191929"/>
<path d="M273.515 600.327C273.515 599.356 273.703 598.594 274.079 598.039C274.455 597.484 274.971 597.206 275.626 597.206C275.93 597.206 276.197 597.258 276.426 597.362V594.875H277.42V597.394C277.671 597.269 277.964 597.206 278.301 597.206C278.96 597.206 279.477 597.484 279.853 598.039C280.229 598.594 280.417 599.394 280.417 600.439C280.417 601.295 280.229 601.976 279.853 602.48C279.481 602.985 278.967 603.238 278.312 603.238C277.964 603.238 277.667 603.181 277.42 603.066V605.359H276.426V603.082C276.19 603.186 275.92 603.238 275.615 603.238C274.964 603.238 274.45 602.985 274.074 602.48C273.701 601.976 273.515 601.285 273.515 600.407V600.327ZM279.423 600.327C279.423 599.596 279.298 599.03 279.048 598.629C278.797 598.225 278.451 598.022 278.011 598.022C277.785 598.022 277.588 598.058 277.42 598.13V602.335C277.581 602.396 277.782 602.427 278.022 602.427C278.466 602.427 278.809 602.255 279.053 601.911C279.3 601.567 279.423 601.039 279.423 600.327ZM274.509 600.439C274.509 601.091 274.625 601.585 274.858 601.922C275.091 602.258 275.426 602.427 275.862 602.427C276.07 602.427 276.258 602.395 276.426 602.33V598.114C276.276 598.053 276.092 598.022 275.873 598.022C275.436 598.022 275.1 598.218 274.863 598.608C274.627 598.998 274.509 599.609 274.509 600.439ZM284.123 603.232C283.335 603.232 282.694 602.975 282.2 602.459C281.706 601.94 281.459 601.247 281.459 600.38V600.198C281.459 599.621 281.568 599.107 281.787 598.656C282.009 598.201 282.317 597.847 282.711 597.593C283.108 597.335 283.538 597.206 284 597.206C284.755 597.206 285.342 597.455 285.761 597.953C286.18 598.45 286.39 599.163 286.39 600.09V600.504H282.453C282.467 601.077 282.634 601.541 282.952 601.895C283.275 602.246 283.683 602.421 284.177 602.421C284.528 602.421 284.825 602.35 285.068 602.207C285.312 602.063 285.525 601.874 285.708 601.637L286.315 602.11C285.828 602.858 285.097 603.232 284.123 603.232ZM284 598.022C283.599 598.022 283.262 598.169 282.99 598.463C282.718 598.753 282.549 599.161 282.485 599.688H285.396V599.612C285.367 599.107 285.231 598.717 284.988 598.441C284.744 598.162 284.415 598.022 284 598.022ZM287.636 603.125V597.313H289.902C290.676 597.313 291.269 597.45 291.68 597.722C292.096 597.99 292.303 598.386 292.303 598.909C292.303 599.177 292.223 599.421 292.062 599.639C291.901 599.854 291.662 600.019 291.347 600.133C291.698 600.216 291.979 600.377 292.191 600.617C292.405 600.857 292.513 601.143 292.513 601.476C292.513 602.01 292.316 602.418 291.922 602.701C291.532 602.984 290.978 603.125 290.262 603.125H287.636ZM288.63 600.574V602.325H290.273C290.688 602.325 290.998 602.248 291.202 602.094C291.41 601.94 291.514 601.723 291.514 601.444C291.514 600.864 291.088 600.574 290.235 600.574H288.63ZM288.63 599.779H289.913C290.844 599.779 291.31 599.507 291.31 598.962C291.31 598.418 290.869 598.137 289.988 598.119H288.63V599.779Z" fill="#191929"/>
<path d="M407.781 601.809L409.757 597.313H410.998V603.125H410.004V598.898L408.124 603.125H407.437L405.519 598.807V603.125H404.526V597.313H405.815L407.781 601.809ZM416.186 603.125C416.129 603.01 416.083 602.806 416.047 602.513C415.585 602.993 415.033 603.232 414.393 603.232C413.82 603.232 413.349 603.071 412.98 602.749C412.615 602.423 412.432 602.011 412.432 601.514C412.432 600.909 412.661 600.439 413.12 600.106C413.581 599.77 414.23 599.602 415.064 599.602H416.031V599.145C416.031 598.798 415.927 598.522 415.719 598.318C415.511 598.11 415.205 598.006 414.801 598.006C414.446 598.006 414.149 598.096 413.909 598.275C413.669 598.454 413.549 598.671 413.549 598.925H412.55C412.55 598.635 412.652 598.355 412.856 598.087C413.064 597.815 413.343 597.6 413.694 597.442C414.049 597.285 414.437 597.206 414.86 597.206C415.529 597.206 416.054 597.374 416.434 597.711C416.813 598.044 417.01 598.504 417.024 599.091V601.766C417.024 602.3 417.092 602.724 417.228 603.039V603.125H416.186ZM414.538 602.368C414.849 602.368 415.144 602.287 415.424 602.126C415.703 601.965 415.905 601.755 416.031 601.498V600.305H415.252C414.034 600.305 413.426 600.661 413.426 601.374C413.426 601.686 413.53 601.929 413.737 602.104C413.945 602.28 414.212 602.368 414.538 602.368ZM423.491 600.284C423.491 601.168 423.289 601.881 422.884 602.421C422.48 602.962 421.932 603.232 421.241 603.232C420.535 603.232 419.98 603.009 419.576 602.561V605.359H418.582V597.313H419.49L419.538 597.958C419.943 597.457 420.505 597.206 421.225 597.206C421.923 597.206 422.474 597.469 422.879 597.996C423.287 598.522 423.491 599.254 423.491 600.192V600.284ZM422.497 600.171C422.497 599.516 422.358 598.998 422.079 598.619C421.799 598.239 421.416 598.049 420.929 598.049C420.328 598.049 419.876 598.316 419.576 598.85V601.626C419.873 602.156 420.328 602.421 420.94 602.421C421.416 602.421 421.794 602.233 422.073 601.857C422.356 601.478 422.497 600.916 422.497 600.171ZM428.647 598.119H426.698V603.125H425.704V598.119H423.792V597.313H428.647V598.119Z" fill="#191929"/>
<path d="M544.603 603.125C544.546 603.01 544.499 602.806 544.463 602.513C544.001 602.993 543.45 603.232 542.809 603.232C542.236 603.232 541.765 603.071 541.396 602.749C541.031 602.423 540.849 602.011 540.849 601.514C540.849 600.909 541.078 600.439 541.536 600.106C541.998 599.77 542.646 599.602 543.48 599.602H544.447V599.145C544.447 598.798 544.343 598.522 544.136 598.318C543.928 598.11 543.622 598.006 543.217 598.006C542.863 598.006 542.566 598.096 542.326 598.275C542.086 598.454 541.966 598.671 541.966 598.925H540.967C540.967 598.635 541.069 598.355 541.273 598.087C541.481 597.815 541.76 597.6 542.111 597.442C542.465 597.285 542.854 597.206 543.276 597.206C543.946 597.206 544.47 597.374 544.85 597.711C545.23 598.044 545.427 598.504 545.441 599.091V601.766C545.441 602.3 545.509 602.724 545.645 603.039V603.125H544.603ZM542.954 602.368C543.266 602.368 543.561 602.287 543.84 602.126C544.12 601.965 544.322 601.755 544.447 601.498V600.305H543.668C542.451 600.305 541.842 600.661 541.842 601.374C541.842 601.686 541.946 601.929 542.154 602.104C542.361 602.28 542.628 602.368 542.954 602.368ZM551.752 603.125H550.758V598.135H548.083V603.125H547.084V597.313H551.752V603.125ZM558.256 600.284C558.256 601.168 558.054 601.881 557.649 602.421C557.245 602.962 556.697 603.232 556.006 603.232C555.3 603.232 554.745 603.009 554.341 602.561V605.359H553.347V597.313H554.255L554.303 597.958C554.708 597.457 555.27 597.206 555.99 597.206C556.688 597.206 557.239 597.469 557.644 597.996C558.052 598.522 558.256 599.254 558.256 600.192V600.284ZM557.263 600.171C557.263 599.516 557.123 598.998 556.844 598.619C556.564 598.239 556.181 598.049 555.694 598.049C555.093 598.049 554.642 598.316 554.341 598.85V601.626C554.638 602.156 555.093 602.421 555.705 602.421C556.181 602.421 556.559 602.233 556.838 601.857C557.121 601.478 557.263 600.916 557.263 600.171Z" fill="#191929"/>
<path d="M676.613 601.809L678.589 597.313H679.83V603.125H678.836V598.898L676.956 603.125H676.269L674.351 598.807V603.125H673.358V597.313H674.647L676.613 601.809ZM685.018 603.125C684.961 603.01 684.915 602.806 684.879 602.513C684.417 602.993 683.865 603.232 683.224 603.232C682.652 603.232 682.181 603.071 681.812 602.749C681.447 602.423 681.264 602.011 681.264 601.514C681.264 600.909 681.493 600.439 681.951 600.106C682.413 599.77 683.062 599.602 683.896 599.602H684.863V599.145C684.863 598.798 684.759 598.522 684.551 598.318C684.343 598.11 684.037 598.006 683.633 598.006C683.278 598.006 682.981 598.096 682.741 598.275C682.501 598.454 682.381 598.671 682.381 598.925H681.382C681.382 598.635 681.484 598.355 681.688 598.087C681.896 597.815 682.175 597.6 682.526 597.442C682.881 597.285 683.269 597.206 683.692 597.206C684.361 597.206 684.886 597.374 685.265 597.711C685.645 598.044 685.842 598.504 685.856 599.091V601.766C685.856 602.3 685.924 602.724 686.06 603.039V603.125H685.018ZM683.369 602.368C683.681 602.368 683.976 602.287 684.256 602.126C684.535 601.965 684.737 601.755 684.863 601.498V600.305H684.084C682.866 600.305 682.258 600.661 682.258 601.374C682.258 601.686 682.361 601.929 682.569 602.104C682.777 602.28 683.044 602.368 683.369 602.368ZM691.174 597.313H692.167V603.125H691.174V598.887L688.493 603.125H687.5V597.313H688.493V601.557L691.174 597.313ZM691.442 595.197C691.442 595.631 691.294 595.98 690.996 596.245C690.703 596.506 690.316 596.637 689.836 596.637C689.356 596.637 688.968 596.504 688.671 596.239C688.374 595.974 688.225 595.627 688.225 595.197H689.036C689.036 595.448 689.104 595.645 689.24 595.788C689.376 595.928 689.575 595.998 689.836 595.998C690.087 595.998 690.282 595.928 690.422 595.788C690.565 595.648 690.637 595.451 690.637 595.197H691.442Z" fill="#191929"/>
<path d="M806.694 597.313H807.688V603.125H806.694V598.887L804.014 603.125H803.02V597.313H804.014V601.557L806.694 597.313ZM810.368 599.779H811.764C811.839 599.005 812.113 598.384 812.586 597.915C813.062 597.442 813.662 597.206 814.385 597.206C815.144 597.206 815.766 597.462 816.249 597.974C816.732 598.486 816.994 599.152 817.033 599.972L817.039 600.284C817.039 600.849 816.928 601.36 816.706 601.814C816.484 602.269 816.172 602.62 815.771 602.867C815.37 603.111 814.912 603.232 814.396 603.232C813.648 603.232 813.035 602.989 812.559 602.502C812.083 602.011 811.816 601.376 811.759 600.595H810.368V603.125H809.374V597.313H810.368V599.779ZM812.742 600.284C812.742 600.928 812.89 601.446 813.188 601.836C813.488 602.226 813.891 602.421 814.396 602.421C814.901 602.421 815.3 602.223 815.594 601.825C815.891 601.428 816.04 600.875 816.04 600.166C816.04 599.532 815.889 599.016 815.588 598.619C815.288 598.221 814.887 598.022 814.385 598.022C813.891 598.022 813.494 598.218 813.193 598.608C812.892 598.998 812.742 599.557 812.742 600.284ZM823.011 603.125H822.018V600.644H819.348V603.125H818.349V597.313H819.348V599.833H822.018V597.313H823.011V603.125ZM825.697 599.317H827.206C827.865 599.324 828.386 599.496 828.769 599.833C829.152 600.169 829.344 600.626 829.344 601.202C829.344 601.782 829.147 602.248 828.753 602.599C828.359 602.95 827.829 603.125 827.163 603.125H824.703V597.313H825.697V599.317ZM825.697 600.128V602.314H827.174C827.546 602.314 827.835 602.219 828.039 602.029C828.243 601.836 828.345 601.573 828.345 601.24C828.345 600.917 828.245 600.654 828.044 600.45C827.847 600.243 827.57 600.135 827.211 600.128H825.697Z" fill="#191929"/>
<path d="M939.971 597.313H940.965V603.125H939.971V598.887L937.291 603.125H936.297V597.313H937.291V601.557L939.971 597.313ZM943.645 599.779H945.042C945.117 599.005 945.391 598.384 945.863 597.915C946.34 597.442 946.939 597.206 947.663 597.206C948.422 597.206 949.043 597.462 949.526 597.974C950.01 598.486 950.271 599.152 950.311 599.972L950.316 600.284C950.316 600.849 950.205 601.36 949.983 601.814C949.761 602.269 949.45 602.62 949.048 602.867C948.647 603.111 948.189 603.232 947.673 603.232C946.925 603.232 946.313 602.989 945.837 602.502C945.36 602.011 945.094 601.376 945.036 600.595H943.645V603.125H942.651V597.313H943.645V599.779ZM946.019 600.284C946.019 600.928 946.168 601.446 946.465 601.836C946.766 602.226 947.169 602.421 947.673 602.421C948.178 602.421 948.578 602.223 948.871 601.825C949.168 601.428 949.317 600.875 949.317 600.166C949.317 599.532 949.167 599.016 948.866 598.619C948.565 598.221 948.164 598.022 947.663 598.022C947.169 598.022 946.771 598.218 946.47 598.608C946.17 598.998 946.019 599.557 946.019 600.284ZM956.23 597.313V603.125H955.231V598.135H953.254L953.136 600.311C953.071 601.31 952.903 602.024 952.631 602.454C952.362 602.883 951.935 603.107 951.347 603.125H950.95V602.25L951.234 602.228C951.557 602.192 951.788 602.006 951.927 601.669C952.067 601.333 952.157 600.71 952.196 599.8L952.303 597.313H956.23ZM958.91 599.317H960.419C961.078 599.324 961.599 599.496 961.982 599.833C962.365 600.169 962.557 600.626 962.557 601.202C962.557 601.782 962.36 602.248 961.966 602.599C961.572 602.95 961.042 603.125 960.376 603.125H957.916V597.313H958.91V599.317ZM958.91 600.128V602.314H960.387C960.759 602.314 961.047 602.219 961.252 602.029C961.456 601.836 961.558 601.573 961.558 601.24C961.558 600.917 961.457 600.654 961.257 600.45C961.06 600.243 960.783 600.135 960.424 600.128H958.91Z" fill="#191929"/>
<path d="M1078.39 603.125C1078.34 603.01 1078.29 602.806 1078.25 602.513C1077.79 602.993 1077.24 603.232 1076.6 603.232C1076.03 603.232 1075.56 603.071 1075.19 602.749C1074.82 602.423 1074.64 602.011 1074.64 601.514C1074.64 600.909 1074.87 600.439 1075.33 600.106C1075.79 599.77 1076.44 599.602 1077.27 599.602H1078.24V599.145C1078.24 598.798 1078.13 598.522 1077.93 598.318C1077.72 598.11 1077.41 598.006 1077.01 598.006C1076.65 598.006 1076.36 598.096 1076.12 598.275C1075.88 598.454 1075.76 598.671 1075.76 598.925H1074.76C1074.76 598.635 1074.86 598.355 1075.06 598.087C1075.27 597.815 1075.55 597.6 1075.9 597.442C1076.26 597.285 1076.64 597.206 1077.07 597.206C1077.74 597.206 1078.26 597.374 1078.64 597.711C1079.02 598.044 1079.22 598.504 1079.23 599.091V601.766C1079.23 602.3 1079.3 602.724 1079.44 603.039V603.125H1078.39ZM1076.75 602.368C1077.06 602.368 1077.35 602.287 1077.63 602.126C1077.91 601.965 1078.11 601.755 1078.24 601.498V600.305H1077.46C1076.24 600.305 1075.63 600.661 1075.63 601.374C1075.63 601.686 1075.74 601.929 1075.94 602.104C1076.15 602.28 1076.42 602.368 1076.75 602.368ZM1080.88 603.125V597.313H1083.15C1083.92 597.313 1084.51 597.45 1084.93 597.722C1085.34 597.99 1085.55 598.386 1085.55 598.909C1085.55 599.177 1085.47 599.421 1085.31 599.639C1085.15 599.854 1084.91 600.019 1084.59 600.133C1084.94 600.216 1085.22 600.377 1085.44 600.617C1085.65 600.857 1085.76 601.143 1085.76 601.476C1085.76 602.01 1085.56 602.418 1085.17 602.701C1084.78 602.984 1084.22 603.125 1083.51 603.125H1080.88ZM1081.87 600.574V602.325H1083.52C1083.93 602.325 1084.24 602.248 1084.45 602.094C1084.65 601.94 1084.76 601.723 1084.76 601.444C1084.76 600.864 1084.33 600.574 1083.48 600.574H1081.87ZM1081.87 599.779H1083.16C1084.09 599.779 1084.55 599.507 1084.55 598.962C1084.55 598.418 1084.11 598.137 1083.23 598.119H1081.87V599.779ZM1090.83 598.135H1088.15V603.125H1087.15V597.313H1090.83V598.135Z" fill="#191929"/>
<path d="M1209.86 602.421C1210.21 602.421 1210.52 602.314 1210.78 602.099C1211.05 601.884 1211.2 601.616 1211.23 601.293H1212.17C1212.15 601.626 1212.03 601.943 1211.82 602.244C1211.61 602.545 1211.33 602.785 1210.97 602.964C1210.62 603.143 1210.25 603.232 1209.86 603.232C1209.06 603.232 1208.43 602.969 1207.97 602.443C1207.5 601.913 1207.27 601.19 1207.27 600.273V600.106C1207.27 599.541 1207.37 599.038 1207.58 598.597C1207.79 598.157 1208.08 597.815 1208.47 597.571C1208.86 597.328 1209.32 597.206 1209.85 597.206C1210.5 597.206 1211.04 597.401 1211.47 597.792C1211.91 598.182 1212.14 598.688 1212.17 599.312H1211.23C1211.2 598.936 1211.05 598.628 1210.8 598.388C1210.54 598.144 1210.23 598.022 1209.85 598.022C1209.35 598.022 1208.95 598.205 1208.67 598.57C1208.4 598.932 1208.26 599.457 1208.26 600.144V600.332C1208.26 601.002 1208.4 601.517 1208.67 601.879C1208.95 602.241 1209.34 602.421 1209.86 602.421ZM1215.69 603.232C1214.91 603.232 1214.27 602.975 1213.77 602.459C1213.28 601.94 1213.03 601.247 1213.03 600.38V600.198C1213.03 599.621 1213.14 599.107 1213.36 598.656C1213.58 598.201 1213.89 597.847 1214.28 597.593C1214.68 597.335 1215.11 597.206 1215.57 597.206C1216.33 597.206 1216.91 597.455 1217.33 597.953C1217.75 598.45 1217.96 599.163 1217.96 600.09V600.504H1214.02C1214.04 601.077 1214.2 601.541 1214.52 601.895C1214.85 602.246 1215.25 602.421 1215.75 602.421C1216.1 602.421 1216.4 602.35 1216.64 602.207C1216.88 602.063 1217.1 601.874 1217.28 601.637L1217.89 602.11C1217.4 602.858 1216.67 603.232 1215.69 603.232ZM1215.57 598.022C1215.17 598.022 1214.83 598.169 1214.56 598.463C1214.29 598.753 1214.12 599.161 1214.06 599.688H1216.97V599.612C1216.94 599.107 1216.8 598.717 1216.56 598.441C1216.32 598.162 1215.99 598.022 1215.57 598.022ZM1223.86 603.125H1222.87V600.644H1220.2V603.125H1219.2V597.313H1220.2V599.833H1222.87V597.313H1223.86V603.125Z" fill="#191929"/>
<path d="M1340.73 600.166C1340.73 599.596 1340.84 599.084 1341.06 598.629C1341.29 598.175 1341.6 597.824 1341.99 597.577C1342.4 597.33 1342.85 597.206 1343.36 597.206C1344.16 597.206 1344.79 597.48 1345.28 598.028C1345.77 598.576 1346.02 599.304 1346.02 600.214V600.284C1346.02 600.849 1345.91 601.358 1345.69 601.809C1345.47 602.257 1345.17 602.606 1344.76 602.856C1344.36 603.107 1343.9 603.232 1343.37 603.232C1342.59 603.232 1341.95 602.958 1341.46 602.411C1340.97 601.863 1340.73 601.138 1340.73 600.235V600.166ZM1341.73 600.284C1341.73 600.928 1341.87 601.446 1342.17 601.836C1342.47 602.226 1342.87 602.421 1343.37 602.421C1343.88 602.421 1344.28 602.224 1344.58 601.831C1344.88 601.433 1345.02 600.878 1345.02 600.166C1345.02 599.528 1344.87 599.013 1344.57 598.619C1344.27 598.221 1343.87 598.022 1343.36 598.022C1342.87 598.022 1342.48 598.218 1342.18 598.608C1341.88 598.998 1341.73 599.557 1341.73 600.284ZM1349.07 600.649H1348.35V603.125H1347.35V597.313H1348.35V599.773H1349L1350.95 597.313H1352.16L1349.86 600.106L1352.35 603.125H1351.09L1349.07 600.649ZM1357.52 598.119H1355.57V603.125H1354.58V598.119H1352.67V597.313H1357.52V598.119Z" fill="#191929"/>
<path d="M1478.4 603.125H1477.41V600.644H1474.74V603.125H1473.74V597.313H1474.74V599.833H1477.41V597.313H1478.4V603.125ZM1479.74 600.166C1479.74 599.596 1479.85 599.084 1480.07 598.629C1480.3 598.175 1480.61 597.824 1481.01 597.577C1481.41 597.33 1481.87 597.206 1482.38 597.206C1483.17 597.206 1483.81 597.48 1484.29 598.028C1484.79 598.576 1485.03 599.304 1485.03 600.214V600.284C1485.03 600.849 1484.92 601.358 1484.7 601.809C1484.49 602.257 1484.18 602.606 1483.77 602.856C1483.37 603.107 1482.91 603.232 1482.39 603.232C1481.6 603.232 1480.96 602.958 1480.47 602.411C1479.98 601.863 1479.74 601.138 1479.74 600.235V600.166ZM1480.74 600.284C1480.74 600.928 1480.89 601.446 1481.18 601.836C1481.49 602.226 1481.89 602.421 1482.39 602.421C1482.89 602.421 1483.29 602.224 1483.59 601.831C1483.89 601.433 1484.04 600.878 1484.04 600.166C1484.04 599.528 1483.88 599.013 1483.58 598.619C1483.28 598.221 1482.88 598.022 1482.38 598.022C1481.89 598.022 1481.49 598.218 1481.19 598.608C1480.89 598.998 1480.74 599.557 1480.74 600.284ZM1490.72 597.313V603.125H1489.72V600.864H1488.22L1486.85 603.125H1485.78L1487.24 600.713C1486.87 600.577 1486.58 600.368 1486.38 600.085C1486.18 599.799 1486.08 599.465 1486.08 599.086C1486.08 598.556 1486.28 598.13 1486.68 597.808C1487.08 597.482 1487.61 597.317 1488.27 597.313H1490.72ZM1487.08 599.097C1487.08 599.38 1487.18 599.609 1487.37 599.784C1487.57 599.956 1487.82 600.044 1488.14 600.047H1489.72V598.119H1488.29C1487.92 598.119 1487.63 598.21 1487.41 598.393C1487.19 598.572 1487.08 598.807 1487.08 599.097Z" fill="#191929"/>
<path d="M1606.97 602.314L1607.32 601.89C1607.71 601.388 1607.93 600.636 1607.98 599.634L1608.07 597.313H1611.81V602.314H1612.56V604.833H1611.57V603.125H1607.51V604.833H1606.52L1606.52 602.314H1606.97ZM1608.15 602.314H1610.82V598.232H1609.03L1608.97 599.618C1608.91 600.774 1608.64 601.673 1608.15 602.314ZM1616.07 603.232C1615.29 603.232 1614.64 602.975 1614.15 602.459C1613.66 601.94 1613.41 601.247 1613.41 600.38V600.198C1613.41 599.621 1613.52 599.107 1613.74 598.656C1613.96 598.201 1614.27 597.847 1614.66 597.593C1615.06 597.335 1615.49 597.206 1615.95 597.206C1616.71 597.206 1617.29 597.455 1617.71 597.953C1618.13 598.45 1618.34 599.163 1618.34 600.09V600.504H1614.4C1614.42 601.077 1614.58 601.541 1614.9 601.895C1615.22 602.246 1615.63 602.421 1616.13 602.421C1616.48 602.421 1616.78 602.35 1617.02 602.207C1617.26 602.063 1617.48 601.874 1617.66 601.637L1618.26 602.11C1617.78 602.858 1617.05 603.232 1616.07 603.232ZM1615.95 598.022C1615.55 598.022 1615.21 598.169 1614.94 598.463C1614.67 598.753 1614.5 599.161 1614.44 599.688H1617.35V599.612C1617.32 599.107 1617.18 598.717 1616.94 598.441C1616.69 598.162 1616.37 598.022 1615.95 598.022ZM1621.3 600.649H1620.58V603.125H1619.58V597.313H1620.58V599.773H1621.23L1623.18 597.313H1624.39L1622.09 600.106L1624.58 603.125H1623.32L1621.3 600.649Z" fill="#191929"/>
<path d="M54.187 574.238C54.187 575.402 53.9883 576.267 53.5908 576.833C53.1934 577.398 52.5721 577.681 51.7271 577.681C50.8928 577.681 50.2751 577.405 49.874 576.854C49.473 576.299 49.2653 575.472 49.251 574.373V573.046C49.251 571.896 49.4497 571.042 49.8472 570.484C50.2446 569.925 50.8677 569.646 51.7163 569.646C52.5578 569.646 53.1773 569.916 53.5747 570.457C53.9722 570.994 54.1763 571.825 54.187 572.949V574.238ZM53.1934 572.879C53.1934 572.038 53.0752 571.426 52.8389 571.042C52.6026 570.656 52.2284 570.462 51.7163 570.462C51.2079 570.462 50.8373 570.654 50.6045 571.037C50.3718 571.42 50.2518 572.009 50.2446 572.804V574.394C50.2446 575.239 50.3664 575.864 50.6099 576.269C50.8569 576.67 51.2293 576.87 51.7271 576.87C52.2176 576.87 52.5811 576.68 52.8174 576.301C53.0573 575.921 53.1826 575.323 53.1934 574.507V572.879Z" fill="#191929"/>
<path d="M43.5629 478.755L43.9604 474.855H47.9672V475.774H44.8036L44.5673 477.906C44.9505 477.681 45.3855 477.568 45.8725 477.568C46.5851 477.568 47.1508 477.804 47.5698 478.277C47.9887 478.746 48.1982 479.382 48.1982 480.184C48.1982 480.989 47.9797 481.625 47.5429 482.09C47.1096 482.552 46.5027 482.783 45.7221 482.783C45.031 482.783 44.4671 482.592 44.0302 482.208C43.5934 481.825 43.3445 481.295 43.2836 480.619H44.2236C44.2844 481.066 44.4438 481.405 44.7016 481.634C44.9594 481.859 45.2996 481.972 45.7221 481.972C46.184 481.972 46.5457 481.815 46.8071 481.5C47.072 481.184 47.2045 480.749 47.2045 480.194C47.2045 479.672 47.0613 479.253 46.7748 478.938C46.492 478.619 46.1142 478.459 45.6415 478.459C45.2083 478.459 44.8681 478.554 44.621 478.744L44.3578 478.959L43.5629 478.755ZM54.1869 479.34C54.1869 480.504 53.9882 481.369 53.5907 481.935C53.1933 482.5 52.572 482.783 51.727 482.783C50.8927 482.783 50.275 482.507 49.874 481.956C49.4729 481.401 49.2652 480.574 49.2509 479.475V478.148C49.2509 476.999 49.4496 476.145 49.8471 475.586C50.2446 475.027 50.8676 474.748 51.7162 474.748C52.5577 474.748 53.1772 475.018 53.5746 475.559C53.9721 476.096 54.1762 476.927 54.1869 478.051V479.34ZM53.1933 477.981C53.1933 477.14 53.0751 476.528 52.8388 476.145C52.6025 475.758 52.2283 475.564 51.7162 475.564C51.2078 475.564 50.8372 475.756 50.6044 476.139C50.3717 476.522 50.2517 477.111 50.2446 477.906V479.496C50.2446 480.341 50.3663 480.966 50.6098 481.371C50.8569 481.772 51.2293 481.972 51.727 481.972C52.2175 481.972 52.581 481.782 52.8173 481.403C53.0572 481.023 53.1825 480.425 53.1933 479.609V477.981Z" fill="#191929"/>
<path d="M40.1953 389.601H39.1963V382.979L37.1928 383.714V382.812L40.0395 381.743H40.1953V389.601ZM48.0102 386.266C48.0102 387.429 47.8115 388.294 47.414 388.86C47.0166 389.426 46.3953 389.708 45.5503 389.708C44.716 389.708 44.0983 389.433 43.6972 388.881C43.2962 388.326 43.0885 387.499 43.0742 386.4V385.073C43.0742 383.924 43.2729 383.07 43.6704 382.511C44.0678 381.953 44.6909 381.673 45.5395 381.673C46.381 381.673 47.0005 381.944 47.3979 382.484C47.7954 383.021 47.9995 383.852 48.0102 384.977V386.266ZM47.0166 384.907C47.0166 384.065 46.8984 383.453 46.6621 383.07C46.4258 382.683 46.0516 382.49 45.5395 382.49C45.0311 382.49 44.6605 382.681 44.4277 383.064C44.195 383.448 44.075 384.037 44.0678 384.832V386.421C44.0678 387.266 44.1896 387.891 44.4331 388.296C44.6801 388.697 45.0525 388.897 45.5503 388.897C46.0408 388.897 46.4043 388.708 46.6406 388.328C46.8805 387.949 47.0058 387.351 47.0166 386.534V384.907ZM54.187 386.266C54.187 387.429 53.9883 388.294 53.5908 388.86C53.1933 389.426 52.5721 389.708 51.727 389.708C50.8927 389.708 50.275 389.433 49.874 388.881C49.473 388.326 49.2653 387.499 49.2509 386.4V385.073C49.2509 383.924 49.4497 383.07 49.8471 382.511C50.2446 381.953 50.8676 381.673 51.7163 381.673C52.5577 381.673 53.1772 381.944 53.5747 382.484C53.9721 383.021 54.1762 383.852 54.187 384.977V386.266ZM53.1933 384.907C53.1933 384.065 53.0752 383.453 52.8388 383.07C52.6025 382.683 52.2283 382.49 51.7163 382.49C51.2078 382.49 50.8372 382.681 50.6045 383.064C50.3717 383.448 50.2518 384.037 50.2446 384.832V386.421C50.2446 387.266 50.3663 387.891 50.6098 388.296C50.8569 388.697 51.2293 388.897 51.727 388.897C52.2176 388.897 52.581 388.708 52.8174 388.328C53.0573 387.949 53.1826 387.351 53.1933 386.534V384.907Z" fill="#191929"/>
<path d="M40.1953 296.526H39.1963V289.903L37.1928 290.639V289.737L40.0395 288.668H40.1953V296.526ZM43.563 292.605L43.9604 288.706H47.9673V289.624H44.8037L44.5674 291.756C44.9505 291.531 45.3855 291.418 45.8725 291.418C46.5851 291.418 47.1508 291.654 47.5698 292.127C47.9887 292.596 48.1982 293.232 48.1982 294.034C48.1982 294.839 47.9798 295.475 47.5429 295.94C47.1097 296.402 46.5027 296.633 45.7221 296.633C45.0311 296.633 44.4671 296.442 44.0302 296.059C43.5934 295.675 43.3445 295.146 43.2837 294.469H44.2236C44.2845 294.916 44.4438 295.255 44.7016 295.484C44.9594 295.709 45.2996 295.822 45.7221 295.822C46.1841 295.822 46.5457 295.665 46.8071 295.35C47.0721 295.035 47.2046 294.599 47.2046 294.044C47.2046 293.522 47.0613 293.103 46.7749 292.788C46.492 292.469 46.1142 292.31 45.6416 292.31C45.2083 292.31 44.8681 292.404 44.6211 292.594L44.3579 292.809L43.563 292.605ZM54.187 293.19C54.187 294.354 53.9883 295.219 53.5908 295.785C53.1933 296.35 52.5721 296.633 51.727 296.633C50.8927 296.633 50.275 296.358 49.874 295.806C49.473 295.251 49.2653 294.424 49.2509 293.325V291.998C49.2509 290.849 49.4497 289.995 49.8471 289.436C50.2446 288.877 50.8676 288.598 51.7163 288.598C52.5577 288.598 53.1772 288.868 53.5747 289.409C53.9721 289.946 54.1762 290.777 54.187 291.901V293.19ZM53.1933 291.832C53.1933 290.99 53.0752 290.378 52.8388 289.995C52.6025 289.608 52.2283 289.415 51.7163 289.415C51.2078 289.415 50.8372 289.606 50.6045 289.989C50.3717 290.372 50.2518 290.961 50.2446 291.756V293.346C50.2446 294.191 50.3663 294.816 50.6098 295.221C50.8569 295.622 51.2293 295.822 51.727 295.822C52.2176 295.822 52.581 295.632 52.8174 295.253C53.0573 294.873 53.1826 294.275 53.1933 293.459V291.832Z" fill="#191929"/>
<path d="M42.0537 203.451H36.9297V202.736L39.6367 199.729C40.0377 199.274 40.3134 198.905 40.4638 198.622C40.6178 198.336 40.6948 198.04 40.6948 197.736C40.6948 197.328 40.5713 196.993 40.3242 196.731C40.0771 196.47 39.7477 196.339 39.3359 196.339C38.8418 196.339 38.4568 196.481 38.1811 196.764C37.909 197.043 37.7729 197.433 37.7729 197.935H36.7793C36.7793 197.215 37.0102 196.633 37.4721 196.189C37.9376 195.745 38.5589 195.523 39.3359 195.523C40.0628 195.523 40.6375 195.715 41.06 196.098C41.4826 196.477 41.6938 196.984 41.6938 197.618C41.6938 198.388 41.2033 199.304 40.2221 200.368L38.1274 202.64H42.0537V203.451ZM48.0102 200.115C48.0102 201.279 47.8115 202.144 47.414 202.709C47.0166 203.275 46.3953 203.558 45.5503 203.558C44.716 203.558 44.0983 203.282 43.6972 202.731C43.2962 202.176 43.0885 201.349 43.0742 200.25V198.923C43.0742 197.773 43.2729 196.919 43.6704 196.361C44.0678 195.802 44.6909 195.523 45.5395 195.523C46.381 195.523 47.0005 195.793 47.3979 196.334C47.7954 196.871 47.9995 197.702 48.0102 198.826V200.115ZM47.0166 198.756C47.0166 197.915 46.8984 197.303 46.6621 196.919C46.4258 196.533 46.0516 196.339 45.5395 196.339C45.0311 196.339 44.6605 196.531 44.4277 196.914C44.195 197.297 44.075 197.886 44.0678 198.681V200.271C44.0678 201.116 44.1896 201.741 44.4331 202.146C44.6801 202.547 45.0525 202.747 45.5503 202.747C46.0408 202.747 46.4043 202.557 46.6406 202.178C46.8805 201.798 47.0058 201.2 47.0166 200.384V198.756ZM54.187 200.115C54.187 201.279 53.9883 202.144 53.5908 202.709C53.1933 203.275 52.5721 203.558 51.727 203.558C50.8927 203.558 50.275 203.282 49.874 202.731C49.473 202.176 49.2653 201.349 49.2509 200.25V198.923C49.2509 197.773 49.4497 196.919 49.8471 196.361C50.2446 195.802 50.8676 195.523 51.7163 195.523C52.5577 195.523 53.1772 195.793 53.5747 196.334C53.9721 196.871 54.1762 197.702 54.187 198.826V200.115ZM53.1933 198.756C53.1933 197.915 53.0752 197.303 52.8388 196.919C52.6025 196.533 52.2283 196.339 51.7163 196.339C51.2078 196.339 50.8372 196.531 50.6045 196.914C50.3717 197.297 50.2518 197.886 50.2446 198.681V200.271C50.2446 201.116 50.3663 201.741 50.6098 202.146C50.8569 202.547 51.2293 202.747 51.727 202.747C52.2176 202.747 52.581 202.557 52.8174 202.178C53.0573 201.798 53.1826 201.2 53.1933 200.384V198.756Z" fill="#191929"/>
<path d="M42.0537 110.375H36.9297V109.661L39.6367 106.653C40.0377 106.199 40.3134 105.83 40.4638 105.547C40.6178 105.26 40.6948 104.965 40.6948 104.661C40.6948 104.252 40.5713 103.918 40.3242 103.656C40.0771 103.395 39.7477 103.264 39.3359 103.264C38.8418 103.264 38.4568 103.406 38.1811 103.688C37.909 103.968 37.7729 104.358 37.7729 104.859H36.7793C36.7793 104.14 37.0102 103.558 37.4721 103.114C37.9376 102.67 38.5589 102.448 39.3359 102.448C40.0628 102.448 40.6375 102.639 41.06 103.022C41.4826 103.402 41.6938 103.909 41.6938 104.542C41.6938 105.312 41.2033 106.229 40.2221 107.292L38.1274 109.564H42.0537V110.375ZM43.563 106.455L43.9604 102.555H47.9673V103.474H44.8037L44.5674 105.606C44.9505 105.38 45.3855 105.268 45.8725 105.268C46.5851 105.268 47.1508 105.504 47.5698 105.977C47.9887 106.446 48.1982 107.081 48.1982 107.883C48.1982 108.689 47.9798 109.325 47.5429 109.79C47.1097 110.252 46.5027 110.483 45.7221 110.483C45.0311 110.483 44.4671 110.291 44.0302 109.908C43.5934 109.525 43.3445 108.995 43.2837 108.318H44.2236C44.2845 108.766 44.4438 109.104 44.7016 109.333C44.9594 109.559 45.2996 109.672 45.7221 109.672C46.1841 109.672 46.5457 109.514 46.8071 109.199C47.0721 108.884 47.2046 108.449 47.2046 107.894C47.2046 107.371 47.0613 106.952 46.7749 106.637C46.492 106.319 46.1142 106.159 45.6416 106.159C45.2083 106.159 44.8681 106.254 44.6211 106.444L44.3579 106.659L43.563 106.455ZM54.187 107.04C54.187 108.204 53.9883 109.069 53.5908 109.634C53.1933 110.2 52.5721 110.483 51.727 110.483C50.8927 110.483 50.275 110.207 49.874 109.656C49.473 109.101 49.2653 108.274 49.2509 107.174V105.848C49.2509 104.698 49.4497 103.844 49.8471 103.286C50.2446 102.727 50.8676 102.448 51.7163 102.448C52.5577 102.448 53.1772 102.718 53.5747 103.259C53.9721 103.796 54.1762 104.627 54.187 105.751V107.04ZM53.1933 105.681C53.1933 104.84 53.0752 104.227 52.8388 103.844C52.6025 103.458 52.2283 103.264 51.7163 103.264C51.2078 103.264 50.8372 103.456 50.6045 103.839C50.3717 104.222 50.2518 104.811 50.2446 105.606V107.196C50.2446 108.041 50.3663 108.666 50.6098 109.07C50.8569 109.471 51.2293 109.672 51.727 109.672C52.2176 109.672 52.581 109.482 52.8174 109.103C53.0573 108.723 53.1826 108.125 53.1933 107.309V105.681Z" fill="#191929"/>
<path d="M38.3745 12.9067H39.1211C39.5901 12.8996 39.959 12.776 40.2275 12.5361C40.4961 12.2962 40.6303 11.9722 40.6303 11.564C40.6303 10.6473 40.1738 10.189 39.2607 10.189C38.831 10.189 38.4873 10.3125 38.2295 10.5596C37.9752 10.8031 37.8481 11.1271 37.8481 11.5317H36.8545C36.8545 10.9123 37.08 10.3984 37.5312 9.99023C37.986 9.57845 38.5625 9.37256 39.2607 9.37256C39.9983 9.37256 40.5766 9.56771 40.9956 9.95801C41.4145 10.3483 41.624 10.8908 41.624 11.5854C41.624 11.9256 41.513 12.255 41.291 12.5737C41.0726 12.8924 40.7736 13.1305 40.394 13.2881C40.8237 13.4242 41.1549 13.6497 41.3877 13.9648C41.624 14.2799 41.7422 14.6649 41.7422 15.1196C41.7422 15.8215 41.513 16.3783 41.0547 16.79C40.5963 17.2018 40.0001 17.4077 39.2661 17.4077C38.532 17.4077 37.9341 17.209 37.4721 16.8115C37.0138 16.4141 36.7846 15.8895 36.7846 15.2378H37.7837C37.7837 15.6496 37.9179 15.979 38.1865 16.2261C38.455 16.4731 38.8149 16.5967 39.2661 16.5967C39.7459 16.5967 40.1129 16.4714 40.3672 16.2207C40.6214 15.9701 40.7485 15.6102 40.7485 15.1411C40.7485 14.6864 40.6089 14.3372 40.3296 14.0938C40.0503 13.8503 39.6474 13.7249 39.1211 13.7178H38.3745V12.9067ZM48.0102 13.9648C48.0102 15.1286 47.8115 15.9933 47.414 16.5591C47.0166 17.1248 46.3953 17.4077 45.5503 17.4077C44.716 17.4077 44.0983 17.132 43.6972 16.5806C43.2962 16.0256 43.0885 15.1984 43.0742 14.0991V12.7725C43.0742 11.623 43.2729 10.769 43.6704 10.2104C44.0678 9.65186 44.6909 9.37256 45.5395 9.37256C46.381 9.37256 47.0005 9.6429 47.3979 10.1836C47.7954 10.7207 47.9995 11.5514 48.0102 12.6758V13.9648ZM47.0166 12.606C47.0166 11.7645 46.8984 11.1522 46.6621 10.769C46.4258 10.3823 46.0516 10.189 45.5395 10.189C45.0311 10.189 44.6605 10.3805 44.4277 10.7637C44.195 11.1468 44.075 11.7358 44.0678 12.5308V14.1206C44.0678 14.9657 44.1896 15.5905 44.4331 15.9951C44.6801 16.3962 45.0525 16.5967 45.5503 16.5967C46.0408 16.5967 46.4043 16.4069 46.6406 16.0273C46.8805 15.6478 47.0058 15.0498 47.0166 14.2334V12.606ZM54.187 13.9648C54.187 15.1286 53.9883 15.9933 53.5908 16.5591C53.1933 17.1248 52.5721 17.4077 51.727 17.4077C50.8927 17.4077 50.275 17.132 49.874 16.5806C49.473 16.0256 49.2653 15.1984 49.2509 14.0991V12.7725C49.2509 11.623 49.4497 10.769 49.8471 10.2104C50.2446 9.65186 50.8676 9.37256 51.7163 9.37256C52.5577 9.37256 53.1772 9.6429 53.5747 10.1836C53.9721 10.7207 54.1762 11.5514 54.187 12.6758V13.9648ZM53.1933 12.606C53.1933 11.7645 53.0752 11.1522 52.8388 10.769C52.6025 10.3823 52.2283 10.189 51.7163 10.189C51.2078 10.189 50.8372 10.3805 50.6045 10.7637C50.3717 11.1468 50.2518 11.7358 50.2446 12.5308V14.1206C50.2446 14.9657 50.3663 15.5905 50.6098 15.9951C50.8569 16.3962 51.2293 16.5967 51.727 16.5967C52.2176 16.5967 52.581 16.4069 52.8174 16.0273C53.0573 15.6478 53.1826 15.0498 53.1933 14.2334V12.606Z" fill="#191929"/>
<path d="M1599.88 710.828C1599.88 711.276 1599.75 711.619 1599.49 711.856C1599.24 712.09 1598.88 712.208 1598.42 712.208C1597.96 712.208 1597.59 712.054 1597.31 711.746C1597.04 711.436 1596.9 711.014 1596.9 710.48V709.997C1596.9 709.481 1597.04 709.07 1597.32 708.762C1597.6 708.452 1597.97 708.296 1598.42 708.296C1598.89 708.296 1599.25 708.417 1599.5 708.657C1599.75 708.897 1599.88 709.235 1599.88 709.672H1599.24C1599.24 709.382 1599.17 709.175 1599.03 709.052C1598.89 708.926 1598.69 708.863 1598.42 708.863C1598.15 708.863 1597.93 708.964 1597.77 709.167C1597.61 709.369 1597.53 709.65 1597.53 710.01V710.507C1597.53 710.858 1597.61 711.135 1597.77 711.337C1597.93 711.54 1598.15 711.641 1598.42 711.641C1598.69 711.641 1598.89 711.579 1599.03 711.456C1599.17 711.333 1599.23 711.124 1599.23 710.828H1599.88ZM1595.86 710.248C1595.86 710.751 1595.98 711.219 1596.21 711.649C1596.45 712.077 1596.77 712.413 1597.17 712.656C1597.57 712.899 1598.01 713.021 1598.48 713.021C1598.95 713.021 1599.38 712.899 1599.78 712.656C1600.18 712.413 1600.5 712.077 1600.74 711.649C1600.97 711.219 1601.09 710.751 1601.09 710.248C1601.09 709.75 1600.97 709.288 1600.74 708.863C1600.51 708.438 1600.19 708.104 1599.79 707.861C1599.39 707.615 1598.95 707.492 1598.48 707.492C1598.01 707.492 1597.57 707.614 1597.17 707.857C1596.76 708.097 1596.44 708.431 1596.21 708.859C1595.98 709.287 1595.86 709.75 1595.86 710.248ZM1595.36 710.248C1595.36 709.656 1595.49 709.106 1595.77 708.6C1596.04 708.093 1596.42 707.694 1596.9 707.404C1597.39 707.111 1597.92 706.965 1598.48 706.965C1599.04 706.965 1599.56 707.111 1600.05 707.404C1600.53 707.694 1600.91 708.093 1601.18 708.6C1601.46 709.106 1601.59 709.656 1601.59 710.248C1601.59 710.825 1601.46 711.365 1601.2 711.869C1600.93 712.373 1600.56 712.779 1600.07 713.086C1599.59 713.391 1599.06 713.543 1598.48 713.543C1597.9 713.543 1597.37 713.393 1596.88 713.091C1596.4 712.786 1596.02 712.382 1595.76 711.878C1595.49 711.374 1595.36 710.831 1595.36 710.248ZM1605.85 710.946V713.451H1605.01V707.053H1607.37C1608.07 707.053 1608.62 707.231 1609.01 707.589C1609.41 707.946 1609.61 708.419 1609.61 709.008C1609.61 709.629 1609.41 710.108 1609.03 710.445C1608.64 710.779 1608.08 710.946 1607.36 710.946H1605.85ZM1605.85 710.256H1607.37C1607.82 710.256 1608.17 710.151 1608.41 709.94C1608.65 709.726 1608.77 709.418 1608.77 709.017C1608.77 708.636 1608.65 708.332 1608.41 708.103C1608.17 707.875 1607.84 707.756 1607.42 707.747H1605.85V710.256ZM1610.28 711.03C1610.28 710.564 1610.37 710.145 1610.55 709.773C1610.74 709.401 1610.99 709.114 1611.32 708.912C1611.65 708.709 1612.02 708.608 1612.44 708.608C1613.09 708.608 1613.61 708.833 1614.01 709.281C1614.41 709.729 1614.61 710.325 1614.61 711.069V711.126C1614.61 711.589 1614.52 712.005 1614.34 712.375C1614.17 712.741 1613.91 713.026 1613.58 713.231C1613.25 713.437 1612.88 713.539 1612.45 713.539C1611.8 713.539 1611.28 713.315 1610.88 712.867C1610.48 712.418 1610.28 711.825 1610.28 711.087V711.03ZM1611.1 711.126C1611.1 711.654 1611.22 712.077 1611.46 712.396C1611.71 712.716 1612.04 712.875 1612.45 712.875C1612.86 712.875 1613.19 712.714 1613.43 712.392C1613.68 712.067 1613.8 711.613 1613.8 711.03C1613.8 710.508 1613.67 710.086 1613.42 709.764C1613.18 709.439 1612.85 709.276 1612.44 709.276C1612.04 709.276 1611.71 709.436 1611.47 709.755C1611.22 710.075 1611.1 710.532 1611.1 711.126ZM1618.4 712.19C1618.4 711.97 1618.32 711.8 1618.15 711.68C1617.98 711.557 1617.7 711.452 1617.28 711.364C1616.87 711.276 1616.55 711.17 1616.3 711.047C1616.06 710.924 1615.88 710.778 1615.77 710.608C1615.65 710.438 1615.59 710.236 1615.59 710.001C1615.59 709.612 1615.76 709.282 1616.09 709.013C1616.42 708.743 1616.84 708.608 1617.35 708.608C1617.89 708.608 1618.33 708.748 1618.66 709.026C1619 709.304 1619.17 709.66 1619.17 710.094H1618.35C1618.35 709.871 1618.26 709.679 1618.06 709.518C1617.88 709.357 1617.64 709.276 1617.35 709.276C1617.06 709.276 1616.83 709.341 1616.66 709.47C1616.49 709.599 1616.41 709.767 1616.41 709.975C1616.41 710.171 1616.49 710.319 1616.64 710.419C1616.8 710.519 1617.08 710.614 1617.48 710.705C1617.89 710.795 1618.22 710.904 1618.47 711.03C1618.72 711.156 1618.91 711.308 1619.03 711.487C1619.15 711.663 1619.21 711.878 1619.21 712.133C1619.21 712.558 1619.04 712.899 1618.7 713.157C1618.36 713.412 1617.92 713.539 1617.38 713.539C1617 713.539 1616.66 713.472 1616.37 713.337C1616.08 713.202 1615.85 713.015 1615.68 712.774C1615.51 712.531 1615.43 712.269 1615.43 711.988H1616.25C1616.26 712.26 1616.37 712.477 1616.57 712.638C1616.78 712.796 1617.05 712.875 1617.38 712.875C1617.69 712.875 1617.93 712.814 1618.12 712.691C1618.3 712.565 1618.4 712.398 1618.4 712.19ZM1621.15 713.451H1620.34V708.696H1621.15V713.451ZM1620.28 707.435C1620.28 707.303 1620.31 707.192 1620.39 707.101C1620.48 707.01 1620.6 706.965 1620.75 706.965C1620.91 706.965 1621.03 707.01 1621.11 707.101C1621.2 707.192 1621.24 707.303 1621.24 707.435C1621.24 707.567 1621.2 707.677 1621.11 707.765C1621.03 707.853 1620.91 707.896 1620.75 707.896C1620.6 707.896 1620.48 707.853 1620.39 707.765C1620.31 707.677 1620.28 707.567 1620.28 707.435ZM1623.56 707.545V708.696H1624.45V709.325H1623.56V712.273C1623.56 712.464 1623.6 712.607 1623.68 712.704C1623.76 712.798 1623.89 712.845 1624.09 712.845C1624.18 712.845 1624.31 712.827 1624.47 712.792V713.451C1624.26 713.51 1624.05 713.539 1623.85 713.539C1623.48 713.539 1623.21 713.429 1623.03 713.209C1622.84 712.99 1622.75 712.678 1622.75 712.273V709.325H1621.88V708.696H1622.75V707.545H1623.56ZM1626.29 713.451H1625.47V708.696H1626.29V713.451ZM1625.41 707.435C1625.41 707.303 1625.45 707.192 1625.53 707.101C1625.61 707.01 1625.73 706.965 1625.89 706.965C1626.05 706.965 1626.17 707.01 1626.25 707.101C1626.33 707.192 1626.37 707.303 1626.37 707.435C1626.37 707.567 1626.33 707.677 1626.25 707.765C1626.17 707.853 1626.05 707.896 1625.89 707.896C1625.73 707.896 1625.61 707.853 1625.53 707.765C1625.45 707.677 1625.41 707.567 1625.41 707.435ZM1629.16 712.348L1630.34 708.696H1631.17L1629.46 713.451H1628.84L1627.12 708.696H1627.95L1629.16 712.348ZM1633.86 713.539C1633.22 713.539 1632.69 713.328 1632.29 712.906C1631.89 712.481 1631.68 711.915 1631.68 711.206V711.056C1631.68 710.584 1631.77 710.164 1631.95 709.795C1632.13 709.423 1632.38 709.133 1632.71 708.925C1633.03 708.714 1633.38 708.608 1633.76 708.608C1634.38 708.608 1634.86 708.812 1635.2 709.219C1635.55 709.626 1635.72 710.209 1635.72 710.968V711.307H1632.5C1632.51 711.775 1632.64 712.155 1632.9 712.445C1633.17 712.732 1633.5 712.875 1633.91 712.875C1634.19 712.875 1634.44 712.817 1634.64 712.7C1634.84 712.583 1635.01 712.427 1635.16 712.234L1635.66 712.621C1635.26 713.233 1634.66 713.539 1633.86 713.539ZM1633.76 709.276C1633.43 709.276 1633.16 709.396 1632.94 709.637C1632.71 709.874 1632.58 710.208 1632.52 710.639H1634.9V710.577C1634.88 710.164 1634.77 709.845 1634.57 709.619C1634.37 709.391 1634.1 709.276 1633.76 709.276ZM1643.27 707.747H1641.21V713.451H1640.37V707.747H1638.32V707.053H1643.27V707.747ZM1645.62 713.539C1644.98 713.539 1644.45 713.328 1644.05 712.906C1643.65 712.481 1643.44 711.915 1643.44 711.206V711.056C1643.44 710.584 1643.53 710.164 1643.71 709.795C1643.89 709.423 1644.14 709.133 1644.47 708.925C1644.79 708.714 1645.14 708.608 1645.52 708.608C1646.14 708.608 1646.62 708.812 1646.96 709.219C1647.31 709.626 1647.48 710.209 1647.48 710.968V711.307H1644.26C1644.27 711.775 1644.4 712.155 1644.66 712.445C1644.93 712.732 1645.26 712.875 1645.67 712.875C1645.95 712.875 1646.2 712.817 1646.4 712.7C1646.6 712.583 1646.77 712.427 1646.92 712.234L1647.42 712.621C1647.02 713.233 1646.42 713.539 1645.62 713.539ZM1645.52 709.276C1645.19 709.276 1644.92 709.396 1644.7 709.637C1644.47 709.874 1644.34 710.208 1644.28 710.639H1646.66V710.577C1646.64 710.164 1646.53 709.845 1646.33 709.619C1646.13 709.391 1645.86 709.276 1645.52 709.276ZM1650.33 712.875C1650.62 712.875 1650.87 712.788 1651.09 712.612C1651.31 712.436 1651.43 712.216 1651.45 711.953H1652.22C1652.2 712.225 1652.11 712.484 1651.94 712.73C1651.76 712.977 1651.53 713.173 1651.24 713.319C1650.96 713.466 1650.65 713.539 1650.33 713.539C1649.68 713.539 1649.17 713.324 1648.78 712.893C1648.4 712.459 1648.21 711.868 1648.21 711.118V710.981C1648.21 710.519 1648.3 710.107 1648.47 709.747C1648.64 709.386 1648.88 709.106 1649.2 708.907C1649.51 708.708 1649.89 708.608 1650.32 708.608C1650.86 708.608 1651.3 708.768 1651.65 709.087C1652.01 709.407 1652.2 709.821 1652.22 710.331H1651.45C1651.43 710.023 1651.31 709.771 1651.1 709.575C1650.89 709.376 1650.63 709.276 1650.32 709.276C1649.91 709.276 1649.59 709.426 1649.36 709.725C1649.14 710.021 1649.02 710.45 1649.02 711.012V711.166C1649.02 711.714 1649.14 712.136 1649.36 712.432C1649.59 712.728 1649.91 712.875 1650.33 712.875ZM1653.95 709.272C1654.31 708.83 1654.78 708.608 1655.35 708.608C1656.36 708.608 1656.86 709.175 1656.87 710.309V713.451H1656.06V710.305C1656.06 709.962 1655.98 709.708 1655.82 709.544C1655.67 709.38 1655.43 709.298 1655.11 709.298C1654.84 709.298 1654.61 709.369 1654.41 709.509C1654.21 709.65 1654.06 709.834 1653.95 710.063V713.451H1653.13V706.701H1653.95V709.272ZM1658.86 708.696L1658.89 709.294C1659.25 708.837 1659.72 708.608 1660.31 708.608C1661.31 708.608 1661.82 709.175 1661.83 710.309V713.451H1661.02V710.305C1661.01 709.962 1660.93 709.708 1660.78 709.544C1660.63 709.38 1660.39 709.298 1660.06 709.298C1659.8 709.298 1659.57 709.369 1659.37 709.509C1659.17 709.65 1659.01 709.834 1658.9 710.063V713.451H1658.09V708.696H1658.86ZM1662.84 711.03C1662.84 710.564 1662.93 710.145 1663.11 709.773C1663.3 709.401 1663.55 709.114 1663.88 708.912C1664.21 708.709 1664.58 708.608 1665 708.608C1665.65 708.608 1666.17 708.833 1666.57 709.281C1666.97 709.729 1667.17 710.325 1667.17 711.069V711.126C1667.17 711.589 1667.08 712.005 1666.9 712.375C1666.73 712.741 1666.47 713.026 1666.14 713.231C1665.81 713.437 1665.43 713.539 1665.01 713.539C1664.36 713.539 1663.84 713.315 1663.44 712.867C1663.04 712.418 1662.84 711.825 1662.84 711.087V711.03ZM1663.66 711.126C1663.66 711.654 1663.78 712.077 1664.02 712.396C1664.27 712.716 1664.6 712.875 1665.01 712.875C1665.42 712.875 1665.75 712.714 1665.99 712.392C1666.23 712.067 1666.36 711.613 1666.36 711.03C1666.36 710.508 1666.23 710.086 1665.98 709.764C1665.74 709.439 1665.41 709.276 1665 709.276C1664.6 709.276 1664.27 709.436 1664.03 709.755C1663.78 710.075 1663.66 710.532 1663.66 711.126ZM1669.07 713.451H1668.26V706.701H1669.07V713.451ZM1670.16 711.03C1670.16 710.564 1670.25 710.145 1670.43 709.773C1670.62 709.401 1670.87 709.114 1671.2 708.912C1671.53 708.709 1671.9 708.608 1672.32 708.608C1672.97 708.608 1673.49 708.833 1673.89 709.281C1674.29 709.729 1674.49 710.325 1674.49 711.069V711.126C1674.49 711.589 1674.4 712.005 1674.22 712.375C1674.05 712.741 1673.79 713.026 1673.46 713.231C1673.13 713.437 1672.76 713.539 1672.33 713.539C1671.68 713.539 1671.16 713.315 1670.76 712.867C1670.36 712.418 1670.16 711.825 1670.16 711.087V711.03ZM1670.98 711.126C1670.98 711.654 1671.1 712.077 1671.34 712.396C1671.59 712.716 1671.92 712.875 1672.33 712.875C1672.74 712.875 1673.07 712.714 1673.31 712.392C1673.56 712.067 1673.68 711.613 1673.68 711.03C1673.68 710.508 1673.55 710.086 1673.3 709.764C1673.06 709.439 1672.73 709.276 1672.32 709.276C1671.92 709.276 1671.59 709.436 1671.35 709.755C1671.1 710.075 1670.98 710.532 1670.98 711.126ZM1675.32 711.034C1675.32 710.293 1675.49 709.704 1675.83 709.268C1676.17 708.828 1676.63 708.608 1677.19 708.608C1677.77 708.608 1678.23 708.813 1678.55 709.224L1678.59 708.696H1679.33V713.337C1679.33 713.952 1679.15 714.437 1678.78 714.792C1678.42 715.146 1677.93 715.323 1677.32 715.323C1676.97 715.323 1676.64 715.25 1676.31 715.104C1675.98 714.957 1675.73 714.756 1675.56 714.501L1675.98 714.014C1676.33 714.444 1676.76 714.66 1677.26 714.66C1677.65 714.66 1677.96 714.548 1678.18 714.326C1678.4 714.103 1678.52 713.79 1678.52 713.385V712.977C1678.19 713.352 1677.75 713.539 1677.18 713.539C1676.63 713.539 1676.18 713.315 1675.83 712.867C1675.49 712.418 1675.32 711.808 1675.32 711.034ZM1676.13 711.126C1676.13 711.663 1676.24 712.084 1676.46 712.392C1676.68 712.697 1676.99 712.849 1677.39 712.849C1677.9 712.849 1678.28 712.616 1678.52 712.15V709.979C1678.27 709.525 1677.89 709.298 1677.4 709.298C1677 709.298 1676.69 709.452 1676.47 709.76C1676.25 710.067 1676.13 710.523 1676.13 711.126ZM1681.45 713.451H1680.63V708.696H1681.45V713.451ZM1680.57 707.435C1680.57 707.303 1680.61 707.192 1680.69 707.101C1680.77 707.01 1680.89 706.965 1681.05 706.965C1681.21 706.965 1681.33 707.01 1681.41 707.101C1681.49 707.192 1681.53 707.303 1681.53 707.435C1681.53 707.567 1681.49 707.677 1681.41 707.765C1681.33 707.853 1681.21 707.896 1681.05 707.896C1680.89 707.896 1680.77 707.853 1680.69 707.765C1680.61 707.677 1680.57 707.567 1680.57 707.435ZM1684.73 713.539C1684.08 713.539 1683.56 713.328 1683.15 712.906C1682.75 712.481 1682.55 711.915 1682.55 711.206V711.056C1682.55 710.584 1682.63 710.164 1682.81 709.795C1683 709.423 1683.25 709.133 1683.57 708.925C1683.89 708.714 1684.25 708.608 1684.62 708.608C1685.24 708.608 1685.72 708.812 1686.07 709.219C1686.41 709.626 1686.58 710.209 1686.58 710.968V711.307H1683.36C1683.37 711.775 1683.51 712.155 1683.77 712.445C1684.03 712.732 1684.36 712.875 1684.77 712.875C1685.06 712.875 1685.3 712.817 1685.5 712.7C1685.7 712.583 1685.87 712.427 1686.02 712.234L1686.52 712.621C1686.12 713.233 1685.52 713.539 1684.73 713.539ZM1684.62 709.276C1684.3 709.276 1684.02 709.396 1683.8 709.637C1683.58 709.874 1683.44 710.208 1683.38 710.639H1685.77V710.577C1685.74 710.164 1685.63 709.845 1685.43 709.619C1685.23 709.391 1684.96 709.276 1684.62 709.276ZM1690.29 712.19C1690.29 711.97 1690.21 711.8 1690.04 711.68C1689.88 711.557 1689.59 711.452 1689.18 711.364C1688.77 711.276 1688.44 711.17 1688.2 711.047C1687.96 710.924 1687.78 710.778 1687.66 710.608C1687.55 710.438 1687.49 710.236 1687.49 710.001C1687.49 709.612 1687.65 709.282 1687.98 709.013C1688.31 708.743 1688.73 708.608 1689.25 708.608C1689.79 708.608 1690.22 708.748 1690.56 709.026C1690.89 709.304 1691.06 709.66 1691.06 710.094H1690.24C1690.24 709.871 1690.15 709.679 1689.96 709.518C1689.77 709.357 1689.53 709.276 1689.25 709.276C1688.95 709.276 1688.72 709.341 1688.55 709.47C1688.39 709.599 1688.3 709.767 1688.3 709.975C1688.3 710.171 1688.38 710.319 1688.54 710.419C1688.69 710.519 1688.97 710.614 1689.37 710.705C1689.78 710.795 1690.11 710.904 1690.36 711.03C1690.62 711.156 1690.8 711.308 1690.92 711.487C1691.04 711.663 1691.11 711.878 1691.11 712.133C1691.11 712.558 1690.94 712.899 1690.6 713.157C1690.26 713.412 1689.82 713.539 1689.27 713.539C1688.89 713.539 1688.56 713.472 1688.26 713.337C1687.97 713.202 1687.74 713.015 1687.57 712.774C1687.41 712.531 1687.33 712.269 1687.33 711.988H1688.14C1688.15 712.26 1688.26 712.477 1688.46 712.638C1688.67 712.796 1688.94 712.875 1689.27 712.875C1689.58 712.875 1689.83 712.814 1690.01 712.691C1690.2 712.565 1690.29 712.398 1690.29 712.19Z" fill="#999999"/>
</g>
<defs>
<clipPath id="clip0_24:78">
<rect width="1701" height="730" rx="65" fill="white"/>
</clipPath>
</defs>
</svg>
