<svg width="338" height="338" viewBox="0 0 338 338" fill="none" xmlns="http://www.w3.org/2000/svg">
<g id="24 / basic / globe">
<path id="icon" fill-rule="evenodd" clip-rule="evenodd" d="M169 14.0835C254.558 14.0835 323.917 83.442 323.917 169C323.917 254.558 254.558 323.917 169 323.917C83.4419 323.917 14.0833 254.558 14.0833 169C14.0833 83.442 83.4419 14.0835 169 14.0835ZM294.639 185.853C279.709 193.619 260.044 200.113 237.716 204.59C234.541 237.009 227.034 265.627 216.115 286.704C257.788 270.008 288.532 231.822 294.639 185.853ZM211.057 180.333C211.184 176.603 211.25 172.823 211.25 169C211.25 98.3581 188.807 42.2502 169 42.2502C149.193 42.2502 126.75 98.3581 126.75 169C126.75 173.043 126.823 177.038 126.966 180.977C140.177 182.358 154.294 183.087 169 183.087C183.478 183.087 197.684 182.065 211.057 180.333ZM239.363 175.399C239.399 173.276 239.417 171.143 239.417 169C239.417 122.136 230.888 79.8147 216.115 51.296C258.03 68.0893 288.889 106.623 294.743 152.95C288.117 160.388 267.213 169.225 239.363 175.399ZM129.27 209.526C141.904 210.664 155.211 211.253 169 211.253C182.567 211.253 195.933 210.484 208.789 209.058C202.436 259.722 184.872 295.75 169 295.75C153.177 295.75 135.672 259.944 129.27 209.526ZM98.6616 176.752C90.5783 175.14 83.0448 173.241 76.1662 171.081C58.6963 165.595 47.2799 158.871 43.1742 153.615C48.8155 106.993 79.7689 68.1697 121.885 51.296C107.112 79.8147 98.5833 122.136 98.5833 169C98.5833 171.599 98.6095 174.183 98.6616 176.752ZM100.402 205.772C103.642 237.705 111.099 265.883 121.885 286.704C80.9347 270.298 50.5377 233.14 43.7006 188.238C58.3962 195.892 77.7874 201.842 100.402 205.772Z" fill="white"/>
</g>
</svg>
