<svg width="310" height="310" viewBox="0 0 310 310" fill="none" xmlns="http://www.w3.org/2000/svg">
<g id="24 / security / lock-circle">
<path id="icon" fill-rule="evenodd" clip-rule="evenodd" d="M12.9167 142.083C12.9167 220.554 76.5295 284.167 155 284.167C233.47 284.167 297.083 220.554 297.083 142.083C297.083 63.6129 233.47 0 155 0C76.5295 0 12.9167 63.6129 12.9167 142.083ZM271.25 142.083C271.25 206.286 219.203 258.333 155 258.333C90.7969 258.333 38.75 206.286 38.75 142.083C38.75 77.8803 90.7969 25.8334 155 25.8334C219.203 25.8334 271.25 77.8803 271.25 142.083ZM142.083 116.25H116.25V90.4166C116.25 69.0156 133.599 51.6666 155 51.6666C176.401 51.6666 193.75 69.0156 193.75 90.4166V116.25H167.917V90.4166C167.917 83.283 162.134 77.5 155 77.5C147.866 77.5 142.083 83.283 142.083 90.4166V116.25ZM219.583 142.083C219.583 127.816 208.017 116.25 193.75 116.25H116.25C101.983 116.25 90.4167 127.816 90.4167 142.083V193.75C90.4167 208.017 101.983 219.583 116.25 219.583H193.75C208.017 219.583 219.583 208.017 219.583 193.75V142.083ZM116.25 142.083V193.75H193.75V142.083H116.25ZM142.083 167.917C142.083 175.05 147.866 180.833 155 180.833C162.134 180.833 167.917 175.05 167.917 167.917C167.917 160.783 162.134 155 155 155C147.866 155 142.083 160.783 142.083 167.917Z" fill="white"/>
</g>
</svg>
