<svg width="152" height="152" viewBox="0 0 152 152" fill="none" xmlns="http://www.w3.org/2000/svg">
<path fill-rule="evenodd" clip-rule="evenodd" d="M19 95C19 111.849 38 128.738 76 145.667C114 128.778 133 111.889 133 95C133 92.5856 133.011 87.4266 133.024 81.0439L133.024 81.0331C133.063 62.3018 133.125 33.0425 133 31.6667C133 26.8053 131.134 25.6755 125.97 22.5485C124.407 21.6018 122.541 20.472 120.333 19C110.833 12.6667 94.9699 6.33337 76 6.33337C54.2337 6.33337 32.6914 18.3169 31.6667 19C29.4588 20.472 27.593 21.6018 26.0295 22.5485C20.8658 25.6755 19 26.8053 19 31.6667V95ZM120.345 87.1131C120.337 91.0975 120.333 93.5414 120.333 95C120.333 104.59 106.224 117.634 76.0059 131.746C45.7844 117.602 31.6667 104.554 31.6667 95V33.9678C31.9214 33.8096 32.1927 33.6413 32.4759 33.4656L32.476 33.4655C34.524 32.195 37.1934 30.539 38.6929 29.5393C44.5147 25.6581 62.3079 19 76 19C90.3145 19 103.957 23.3062 113.307 29.5393C114.806 30.5389 117.475 32.1946 119.523 33.4651L119.524 33.4653L119.897 33.697L120.394 34.0055C120.408 37.7582 120.414 49.8918 120.391 64.0287C120.385 67.306 120.379 70.7403 120.371 74.7424L120.361 79.4693C120.353 83.3086 120.348 85.6987 120.345 87.1131ZM95 57C101.996 57 107.667 62.6711 107.667 69.6667V95C107.667 101.996 101.996 107.667 95 107.667H57C50.0044 107.667 44.3333 101.996 44.3333 95V69.6667C44.3333 62.6711 50.0044 57 57 57V44.3334C57 33.84 65.5066 25.3334 76 25.3334C86.4934 25.3334 95 33.84 95 44.3334V57ZM82.3333 44.3334V57H69.6667V44.3334C69.6667 40.8356 72.5022 38 76 38C79.4978 38 82.3333 40.8356 82.3333 44.3334ZM57 95V69.6667H95V95H57ZM69.6667 82.3334C69.6667 85.8312 72.5022 88.6667 76 88.6667C79.4978 88.6667 82.3333 85.8312 82.3333 82.3334C82.3333 78.8356 79.4978 76 76 76C72.5022 76 69.6667 78.8356 69.6667 82.3334Z" fill="white"/>
</svg>
