<svg width="152" height="152" viewBox="0 0 152 152" fill="none" xmlns="http://www.w3.org/2000/svg">
<g id="&#208;&#187;&#208;&#190;&#208;&#179;&#208;&#190; 2">
<path id="icon" fill-rule="evenodd" clip-rule="evenodd" d="M19 95C19 111.849 38 128.738 76 145.667C114 128.778 133 111.889 133 95C133 92.5842 133.011 87.4208 133.024 81.0331C133.063 62.3017 133.125 33.0425 133 31.6667C133 26.8053 131.134 25.6754 125.97 22.5485L125.97 22.5485L125.97 22.5482L125.97 22.5479C124.406 21.6013 122.541 20.4716 120.333 19C110.833 12.6667 94.9699 6.33334 76 6.33334C54.2337 6.33334 32.6914 18.3169 31.6667 19C29.4588 20.4719 27.593 21.6018 26.0295 22.5485C20.8658 25.6754 19 26.8053 19 31.6667V95ZM120.345 87.113C120.337 91.0974 120.333 93.5414 120.333 95C120.333 104.59 106.224 117.634 76.0059 131.746C45.7844 117.602 31.6667 104.554 31.6667 95V33.9678C31.9187 33.8113 32.187 33.6448 32.467 33.4711L32.476 33.4655C34.524 32.195 37.1934 30.539 38.6929 29.5393C44.5147 25.6581 62.3079 19 76 19C90.3145 19 103.957 23.3061 113.307 29.5393C114.807 30.5389 117.476 32.1948 119.524 33.4653L120.089 33.816L120.394 34.0055C120.408 37.7582 120.414 49.8917 120.391 64.0286C120.385 67.3059 120.379 70.7403 120.371 74.7424L120.361 79.4688C120.353 83.3083 120.348 85.6986 120.345 87.113ZM95 57C101.996 57 107.667 62.6711 107.667 69.6667V95C107.667 101.996 101.996 107.667 95 107.667H57C50.0044 107.667 44.3333 101.996 44.3333 95V69.6667C44.3333 62.6711 50.0044 57 57 57V44.3333C57 33.8399 65.5066 25.3333 76 25.3333C86.4934 25.3333 95 33.8399 95 44.3333V57ZM82.3333 44.3333V57H69.6667V44.3333C69.6667 40.8355 72.5022 38 76 38C79.4978 38 82.3333 40.8355 82.3333 44.3333ZM57 95V69.6667H95V95H57ZM69.6667 82.3333C69.6667 85.8311 72.5022 88.6667 76 88.6667C79.4978 88.6667 82.3333 85.8311 82.3333 82.3333C82.3333 78.8355 79.4978 76 76 76C72.5022 76 69.6667 78.8355 69.6667 82.3333Z" fill="#2E363E"/>
</g>
</svg>
