<svg width="65" height="65" viewBox="0 0 65 65" fill="none" xmlns="http://www.w3.org/2000/svg">
<g id="24 / various / moon">
<path id="icon" fill-rule="evenodd" clip-rule="evenodd" d="M35.2083 24.375C35.2083 19.0272 37.4304 14.0421 41.2745 10.4749L45.2763 6.7613L39.8983 5.82175C38.3593 5.55288 36.7918 5.41669 35.2083 5.41669C20.2506 5.41669 8.125 17.5423 8.125 32.5C8.125 47.4577 20.2506 59.5834 35.2083 59.5834C44.3771 59.5834 52.7699 54.9896 57.7596 47.503L60.7836 42.9658L55.3411 43.2977C54.9514 43.3214 54.5598 43.3334 54.1667 43.3334C43.6963 43.3334 35.2083 34.8454 35.2083 24.375ZM35.2083 54.1667C23.2422 54.1667 13.5417 44.4662 13.5417 32.5C13.5417 20.9839 22.5262 11.5663 33.8681 10.8741C31.2452 14.8105 29.7917 19.4779 29.7917 24.375C29.7917 36.3973 38.4955 46.3868 49.9455 48.3858C46.0087 52.0416 40.7901 54.1667 35.2083 54.1667Z" fill="#191929"/>
</g>
</svg>
