<svg width="66" height="66" viewBox="0 0 66 66" fill="none" xmlns="http://www.w3.org/2000/svg">
<g id="24 / various / sun">
<path id="icon" fill-rule="evenodd" clip-rule="evenodd" d="M16.2989 49.7011L20.9312 62.1369L33.0001 56.619L45.069 62.1369L49.7012 49.7011L62.137 45.0689L56.6191 33L62.137 20.9311L49.7012 16.2988L45.069 3.8631L33.0001 9.381L20.9312 3.8631L16.2989 16.2988L3.86316 20.9311L9.38106 33L3.86316 45.0689L16.2989 49.7011ZM41.9788 54.6765L33.0001 50.5714L24.0214 54.6765L20.5752 45.4249L11.3236 41.9787L15.4287 33L11.3236 24.0213L20.5752 20.5751L24.0214 11.3235L33.0001 15.4286L41.9788 11.3235L45.4249 20.5751L54.6766 24.0213L50.5715 33L54.6766 41.9787L45.4249 45.4249L41.9788 54.6765ZM33 46.75C25.4061 46.75 19.25 40.5939 19.25 33C19.25 25.4061 25.4061 19.25 33 19.25C40.5939 19.25 46.75 25.4061 46.75 33C46.75 40.5939 40.5939 46.75 33 46.75ZM41.25 33C41.25 37.5564 37.5564 41.25 33 41.25C28.4437 41.25 24.75 37.5564 24.75 33C24.75 28.4437 28.4437 24.75 33 24.75C37.5564 24.75 41.25 28.4437 41.25 33Z" fill="white"/>
</g>
</svg>
